<svg width="640" height="480" xmlns="http://www.w3.org/2000/svg" xmlns:svg="http://www.w3.org/2000/svg" xmlns:xlink="http://www.w3.org/1999/xlink">
 <!-- Created with SVG-edit - http://svg-edit.googlecode.com/ -->
 <defs>
  <symbol id="svg_10" viewBox="-64 0 512 512" xmlns="http://www.w3.org/2000/svg">
   <g style="--darkreader-inline-fill:#067217;" fill="#00cd69" id="svg_1">
    <path d="m151.79688,223.55078l-55.60938,-27.80469l0,52.23829c0,8.5625 6.96875,15.53125 15.53125,15.53125l80.15625,0c8.5625,0 15.53125,-6.96875 15.53125,-15.53125l0,-52.23829l-55.60937,27.80469zm0,0" id="svg_2"/>
    <path d="m39.57813,40.07813l16.03125,0l0,15.03125l-16.03125,0l0,-15.03125zm0,0" id="svg_3"/>
    <path d="m71.64063,40.07813l16.03125,0l0,15.03125l-16.03125,0l0,-15.03125zm0,0" id="svg_5"/>
    <path d="m103.70313,40.07813l16.03125,0l0,15.03125l-16.03125,0l0,-15.03125zm0,0" id="svg_6"/>
    <path d="m240.46875,296.57813l111.21875,0l0,55.10937l-111.21875,0l0,-55.10937zm0,0" id="svg_7"/>
    <path d="m304.59375,432.84375l47.09375,0l0,47.09375l-47.09375,0l0,-47.09375zm0,0" id="svg_8"/>
   </g>
   <path d="m239.46875,247.98438l0,-60.75391l-87.67187,-43.83594l-96.96094,48.48047l96.96094,48.48047l72.64062,-36.32031l0,43.94922l15.03125,0zm-87.67187,-24.4336l-63.35547,-31.67578l63.35547,-31.67578l63.35156,31.67578l-63.35156,31.67578zm0,0" id="svg_13"/>
   <path d="m15.03125,15.03125l193.375,0l0,88.17188l95.1875,0l0,-18.64454l-84.55859,-84.55859l-219.03516,0l0,431.84375l191.875,0l0,-15.03125l-176.84375,0l0,-401.78125zm208.40625,10.625l62.51563,62.51563l-62.51563,0l0,-62.51563zm0,0" id="svg_14"/>
   <path d="m303.59375,264.51563l0,-144.78125l-15.03125,0l0,144.78125l-80.15625,0l0,24.04687l-168.82812,0l0,15.03125l168.82812,0l0,17.03125l-168.82812,0l0,15.03125l168.82812,0l0,176.34375l175.34375,0l0,-247.48437l-80.15625,0zm65.125,232.45312l-145.28125,0l0,-217.42187l145.28125,0l0,217.42187zm0,0" id="svg_15"/>
   <path d="m351.6875,368.71875l-47.09375,0l0,47.09375l47.09375,0l0,-47.09375zm-15.03125,32.0625l-17.03125,0l0,-17.03125l17.03125,0l0,17.03125zm0,0" id="svg_16"/>
   <path d="m287.5625,432.84375l-47.09375,0l0,47.09375l47.09375,0l0,-47.09375zm-15.03125,32.0625l-17.03125,0l0,-17.03125l17.03125,0l0,17.03125zm0,0" id="svg_17"/>
   <path d="m287.5625,368.71875l-47.09375,0l0,47.09375l47.09375,0l0,-47.09375zm-15.03125,32.0625l-17.03125,0l0,-17.03125l17.03125,0l0,17.03125zm0,0" id="svg_18"/>
   <path d="m39.57813,72.14063l80.15625,0l0,15.03125l-80.15625,0l0,-15.03125zm0,0" id="svg_19"/>
   <path d="m39.57813,104.20313l112.21875,0l0,15.03125l-112.21875,0l0,-15.03125zm0,0" id="svg_20"/>
   <path d="m103.70313,352.6875l88.17187,0l0,15.03125l-88.17187,0l0,-15.03125zm0,0" id="svg_21"/>
  </symbol>
 </defs>
 <g>
  <title>Layer 1</title>
  <g id="svg_4"/>
  <g id="svg_9"/>
  <g id="svg_45"/>
  <use fill="#00cd69" x="73.04818" y="2.86912" transform="matrix(1.0612472440778453,0,0,0.9828699109999394,-119.05204110329817,2.000693948293616) " xlink:href="#svg_10" id="svg_11"/>
  <g id="svg_12"/>
 </g>
</svg>