<?xml version="1.0" encoding="UTF-8" standalone="no"?>
<svg width="111px" height="103px" viewBox="0 0 111 103" version="1.1" xmlns="http://www.w3.org/2000/svg" xmlns:xlink="http://www.w3.org/1999/xlink">
    <!-- Generator: Sketch 42 (36781) - http://www.bohemiancoding.com/sketch -->
    <title>city-hall</title>
    <desc>Created with Sketch.</desc>
    <defs></defs>
    <g id="Page-1" stroke="none" stroke-width="1" fill="none" fill-rule="evenodd">
        <g id="city-hall" fill-rule="nonzero" fill="#00cd69">
            <g id="Capa_1">
                <g id="Group">
                    <path d="M110.133421,72.2321509 L99.3157895,65.0357547 L99.3157895,44.6981132 C99.3157895,43.6234151 98.4433684,42.754717 97.3684211,42.754717 L89.5789474,42.754717 L89.5789474,34.9811321 C89.5789474,33.906434 88.7065263,33.0377358 87.6315789,33.0377358 L71.9435789,33.0377358 C71.0614211,24.6422642 64.5338421,18.0424906 56.4736842,17.5430377 L56.4736842,13.6037736 L68.1578947,13.6037736 C69.2328421,13.6037736 70.1052632,12.7350755 70.1052632,11.6603774 L70.1052632,1.94339623 C70.1052632,0.868698113 69.2328421,0 68.1578947,0 L56.4736842,0 L54.5263158,0 L52.5789474,0 L52.5789474,1.94339623 L52.5789474,11.6603774 L52.5789474,17.7801321 C45.4340526,19.1327358 39.8665263,25.3302264 39.0564211,33.0377358 L23.3684211,33.0377358 C22.2934737,33.0377358 21.4210526,33.906434 21.4210526,34.9811321 L21.4210526,42.754717 L13.6315789,42.754717 C12.5566316,42.754717 11.6842105,43.6234151 11.6842105,44.6981132 L11.6842105,65.0357547 L0.866578947,72.2321509 C0.325210526,72.5936226 0,73.1999623 0,73.8490566 L0,101.056604 C0,102.131302 0.872421053,103 1.94736842,103 L13.6315789,103 L25.3157895,103 L33.1052632,103 L42.8421053,103 L50.6315789,103 L60.3684211,103 L68.1578947,103 L77.8947368,103 L85.6842105,103 L97.3684211,103 L109.052632,103 C110.127579,103 111,102.131302 111,101.056604 L111,73.8490566 C111,73.1999623 110.674789,72.5936226 110.133421,72.2321509 Z M56.4736842,3.88679245 L66.2105263,3.88679245 L66.2105263,9.71698113 L56.4736842,9.71698113 L56.4736842,3.88679245 Z M55.5,21.3773585 C61.864,21.3773585 67.1316316,26.4573962 68.0137895,33.0377358 L42.9862105,33.0377358 C43.8683684,26.4573962 49.136,21.3773585 55.5,21.3773585 Z M25.3157895,36.9245283 L85.6842105,36.9245283 L85.6842105,42.754717 L25.3157895,42.754717 L25.3157895,36.9245283 Z M3.89473684,74.8887736 L11.6842105,69.7057358 L11.6842105,99.1132075 L3.89473684,99.1132075 L3.89473684,74.8887736 Z M15.5789474,66.0754717 L15.5789474,46.6415094 L23.3684211,46.6415094 L87.6315789,46.6415094 L95.4210526,46.6415094 L95.4210526,66.0754717 L95.4210526,99.1132075 L87.6315789,99.1132075 L87.6315789,71.9056604 C87.6315789,70.8309623 86.7591579,69.9622642 85.6842105,69.9622642 L77.8947368,69.9622642 C76.8197895,69.9622642 75.9473684,70.8309623 75.9473684,71.9056604 L75.9473684,99.1132075 L70.1052632,99.1132075 L70.1052632,71.9056604 C70.1052632,70.8309623 69.2328421,69.9622642 68.1578947,69.9622642 L60.3684211,69.9622642 C59.2934737,69.9622642 58.4210526,70.8309623 58.4210526,71.9056604 L58.4210526,99.1132075 L52.5789474,99.1132075 L52.5789474,71.9056604 C52.5789474,70.8309623 51.7065263,69.9622642 50.6315789,69.9622642 L42.8421053,69.9622642 C41.7671579,69.9622642 40.8947368,70.8309623 40.8947368,71.9056604 L40.8947368,99.1132075 L35.0526316,99.1132075 L35.0526316,71.9056604 C35.0526316,70.8309623 34.1802105,69.9622642 33.1052632,69.9622642 L25.3157895,69.9622642 C24.2408421,69.9622642 23.3684211,70.8309623 23.3684211,71.9056604 L23.3684211,99.1132075 L15.5789474,99.1132075 L15.5789474,66.0754717 Z M27.2631579,99.1132075 L27.2631579,73.8490566 L31.1578947,73.8490566 L31.1578947,99.1132075 L27.2631579,99.1132075 Z M44.7894737,99.1132075 L44.7894737,73.8490566 L48.6842105,73.8490566 L48.6842105,99.1132075 L44.7894737,99.1132075 Z M62.3157895,99.1132075 L62.3157895,73.8490566 L66.2105263,73.8490566 L66.2105263,99.1132075 L62.3157895,99.1132075 Z M79.8421053,99.1132075 L79.8421053,73.8490566 L83.7368421,73.8490566 L83.7368421,99.1132075 L79.8421053,99.1132075 Z M107.105263,99.1132075 L99.3157895,99.1132075 L99.3157895,69.7057358 L107.105263,74.8887736 L107.105263,99.1132075 Z" id="Shape"></path>
                    <path d="M25.3157895,64.1320755 L33.1052632,64.1320755 C34.1802105,64.1320755 35.0526316,63.2633774 35.0526316,62.1886792 L35.0526316,54.4150943 C35.0526316,53.3403962 34.1802105,52.4716981 33.1052632,52.4716981 L25.3157895,52.4716981 C24.2408421,52.4716981 23.3684211,53.3403962 23.3684211,54.4150943 L23.3684211,62.1886792 C23.3684211,63.2633774 24.2408421,64.1320755 25.3157895,64.1320755 Z M27.2631579,56.3584906 L31.1578947,56.3584906 L31.1578947,60.245283 L27.2631579,60.245283 L27.2631579,56.3584906 Z" id="Shape"></path>
                    <path d="M42.8421053,64.1320755 L50.6315789,64.1320755 C51.7065263,64.1320755 52.5789474,63.2633774 52.5789474,62.1886792 L52.5789474,54.4150943 C52.5789474,53.3403962 51.7065263,52.4716981 50.6315789,52.4716981 L42.8421053,52.4716981 C41.7671579,52.4716981 40.8947368,53.3403962 40.8947368,54.4150943 L40.8947368,62.1886792 C40.8947368,63.2633774 41.7671579,64.1320755 42.8421053,64.1320755 Z M44.7894737,56.3584906 L48.6842105,56.3584906 L48.6842105,60.245283 L44.7894737,60.245283 L44.7894737,56.3584906 Z" id="Shape"></path>
                    <path d="M60.3684211,64.1320755 L68.1578947,64.1320755 C69.2328421,64.1320755 70.1052632,63.2633774 70.1052632,62.1886792 L70.1052632,54.4150943 C70.1052632,53.3403962 69.2328421,52.4716981 68.1578947,52.4716981 L60.3684211,52.4716981 C59.2934737,52.4716981 58.4210526,53.3403962 58.4210526,54.4150943 L58.4210526,62.1886792 C58.4210526,63.2633774 59.2934737,64.1320755 60.3684211,64.1320755 Z M62.3157895,56.3584906 L66.2105263,56.3584906 L66.2105263,60.245283 L62.3157895,60.245283 L62.3157895,56.3584906 Z" id="Shape"></path>
                    <path d="M77.8947368,64.1320755 L85.6842105,64.1320755 C86.7591579,64.1320755 87.6315789,63.2633774 87.6315789,62.1886792 L87.6315789,54.4150943 C87.6315789,53.3403962 86.7591579,52.4716981 85.6842105,52.4716981 L77.8947368,52.4716981 C76.8197895,52.4716981 75.9473684,53.3403962 75.9473684,54.4150943 L75.9473684,62.1886792 C75.9473684,63.2633774 76.8197895,64.1320755 77.8947368,64.1320755 Z M79.8421053,56.3584906 L83.7368421,56.3584906 L83.7368421,60.245283 L79.8421053,60.245283 L79.8421053,56.3584906 Z" id="Shape"></path>
                </g>
            </g>
        </g>
    </g>
</svg>