<svg xmlns="http://www.w3.org/2000/svg" width="38" height="38">
  <path fill="#00cd69" d="M37.92 26.25v-.03-.05-.02-.03s0-.02-.02-.03v-.04-.03s-.02 0-.02-.02v-.03h-.02l-6.48-14.33V9.77h.04c.7 0 1.27-.57 1.27-1.28v-.1c0-.63-.46-1.16-1.08-1.26L20.92 5.4V4.3c.4-.45.65-1.06.65-1.7C21.57 1.15 20.42 0 19 0s-2.57 1.16-2.57 2.6c0 .64.24 1.25.65 1.7v1.05l-10.7 1.8c-.62.1-1.07.62-1.07 1.24v.1c0 .7.58 1.27 1.28 1.27h.04v1.87L.14 25.97.1 26v.03s0 .02-.02.03v.08c-.02 0-.02.02-.02.02v.1c.04 2.53 3.17 4.5 7.15 4.5 4 0 7.1-1.97 7.15-4.5v-.02-.03-.05-.02-.03-.03l-.02-.04v-.03l-.02-.02v-.03l-6.5-14.33V9.77h9.24v13.37c-.4.22-.65.63-.65 1.1v9.08l-3.9 1.22c-.8.25-1.33 1-1.33 1.84v1c0 .34.27.62.6.62h14.4c.33 0 .6-.28.6-.62v-1c0-.85-.54-1.6-1.34-1.84l-3.9-1.22v-9.07c0-.48-.25-.9-.64-1.1V9.76h9.23v1.87l-6.48 14.33V26l-.02.03v.03l-.02.03v.17c.03 2.53 3.15 4.5 7.14 4.5 3.98 0 7.1-1.97 7.15-4.5v-.02zM7.22 13.27l5.6 12.34H1.65l5.58-12.33zm0 16.28c-2.83 0-5.27-1.2-5.8-2.7h11.63c-.53 1.5-2.98 2.7-5.82 2.7zm13.13-5.3v8.9h-2.7v-8.9c0-.02.02-.04.04-.04h2.6c.03 0 .05.03.05.05zm-2.04-1.27V5.08c.23.06.46.1.7.1.24 0 .47-.04.7-.1v17.9h-1.4zM19 1.23c.74 0 1.35.6 1.35 1.36 0 .73-.6 1.34-1.35 1.34-.74 0-1.35-.6-1.35-1.35 0-.76.6-1.37 1.35-1.37zM6.58 8.53c-.02 0-.04 0-.04-.04v-.1c0-.03 0-.04.03-.05l10.5-1.76v1.94H6.58zm19 27.85v.4H12.42v-.4c0-.3.2-.57.5-.67l4.2-1.3h3.75l4.22 1.3c.28.1.48.37.48.68zM20.92 6.65l10.5 1.7c.03 0 .04.03.04.05v.1c0 .02-.02.04-.04.04h-10.5v-1.9zm9.85 6.62l5.58 12.34H25.18l5.6-12.33zm0 16.28c-2.84 0-5.3-1.2-5.82-2.7H36.6c-.55 1.5-3 2.7-5.83 2.7z"/>
</svg>
