<svg xmlns="http://www.w3.org/2000/svg" width="60" height="50" viewBox="0 0 60 50">
  <path fill="#00cd69" d="M42.9484615,2.21142145 C39.9115385,-0.606622937 34.7076923,-1.24977339 30,3.38636415 C25.2992308,-1.24522816 20.0884615,-0.606622937 17.0515385,2.20914884 C13.5138462,5.48853436 13.4515385,10.9746305 16.8623077,14.3335576 L30,27.2738356 L43.1376923,14.3358302 C46.5484615,10.9769031 46.4861538,5.49080698 42.9484615,2.21142145 Z M41.5061538,12.7268177 L30,24.0603559 L18.4938462,12.7290903 C15.9969231,10.2678467 16.0453846,6.26576918 18.6346154,3.86588622 C19.7376923,2.83866359 21.2146154,2.27505471 22.7930769,2.27505471 C26.0976923,2.27505471 27.5838462,4.22041439 30,6.5998438 C32.3515385,4.28404765 33.8653846,2.27505471 37.2069231,2.27505471 C38.7853846,2.27505471 40.2623077,2.83866359 41.3676923,3.8636136 C43.95,6.25895134 44.01,10.2610289 41.5061538,12.7268177 Z M56.0561538,2.27505471 C58.23,2.27505471 60,4.01815152 60,6.15895621 L60,28.8123969 C60,30.3191416 59.4069231,31.7395269 58.3292308,32.8122018 L49.5715385,41.5163228 C48.8561538,42.1844721 48.4615385,43.0844282 48.4615385,44.0093831 L48.4615385,50 L34.6153846,50 L34.6153846,37.2710753 C34.6315385,35.1257254 35.5615385,33.0735527 37.1653846,31.6349865 L48.8215385,20.949144 C49.3223077,20.4559863 49.9684615,20.119639 50.6723077,19.9719189 L52.1330769,5.76579357 C52.3361538,3.77498156 54.0230769,2.27505471 56.0561538,2.27505471 Z M57.6923077,28.8123969 L57.6923077,6.15895621 C57.6923077,5.27036318 56.9584615,4.54767115 56.0561538,4.54767115 C55.2138462,4.54767115 54.5123077,5.17036806 54.4269231,5.99760044 L52.9707692,20.178727 C53.4184615,20.362809 53.8269231,20.6309777 54.1776923,20.9809606 C54.8976923,21.6877444 55.2923077,22.6286076 55.2923077,23.6308314 C55.2923077,24.6330553 54.8953846,25.5739185 54.1753846,26.2829748 L45.1315385,34.3621263 L43.5807692,32.6803901 L52.5830769,24.6398731 C52.8253846,24.3989758 52.9846154,24.0262667 52.9846154,23.633104 C52.9846154,23.2399414 52.8276923,22.8672323 52.5438462,22.5877005 C52.2346154,22.2831699 51.8723077,22.1945378 51.6207692,22.1718117 C51.1661538,22.1263593 50.7369231,22.2786246 50.4230769,22.5877005 L38.73,33.3121775 C37.5876923,34.3348549 36.9346154,35.7779663 36.9230769,37.284711 L36.9230769,47.7273836 L46.1538462,47.7273836 L46.1538462,44.0093831 C46.1538462,42.4594586 46.8115385,40.9595318 47.9584615,39.8914021 L56.6884615,31.2145525 C57.3369231,30.5691294 57.6923077,29.7168983 57.6923077,28.8123969 Z M22.8346154,31.6349865 C24.4384615,33.0758254 25.3707692,35.1257254 25.3846154,37.2710753 L25.3846154,50 L11.5384615,50 L11.5384615,44.0093831 C11.5384615,43.0844282 11.1438462,42.1821994 10.4284615,41.5140502 L1.67076923,32.8099292 C0.593076923,31.7395269 0,30.3191416 0,28.8123969 L0,6.15895621 C0,4.01815152 1.77,2.27505471 3.94384615,2.27505471 C5.97692308,2.27505471 7.66384615,3.77498156 7.86692308,5.76579357 L9.32769231,19.9719189 C10.0315385,20.1173664 10.6776923,20.4559863 11.1784615,20.949144 L22.8346154,31.6349865 Z M23.0769231,47.7273836 L23.0769231,37.2801658 C23.0653846,35.7734211 22.4123077,34.3303096 21.27,33.3076322 L9.57692308,22.5831552 C9.26307692,22.2740794 8.83615385,22.1240867 8.37923077,22.1672664 C8.12769231,22.1899926 7.76307692,22.2786246 7.45615385,22.5831552 C7.17230769,22.8626871 7.01538462,23.2331235 7.01538462,23.6285588 C7.01538462,24.0239941 7.17230769,24.3944305 7.41692308,24.6353279 L16.4192308,32.6758449 L14.8684615,34.357581 L5.82461538,26.2784296 C5.10461538,25.5693732 4.70769231,24.62851 4.70769231,23.6262862 C4.70769231,22.6240623 5.10461538,21.6831991 5.82230769,20.9764154 C6.17307692,20.6287051 6.58153846,20.3605364 7.02923077,20.1741818 L5.57307692,5.99305521 C5.48769231,5.17036806 4.78615385,4.54767115 3.94384615,4.54767115 C3.04153846,4.54767115 2.30769231,5.27036318 2.30769231,6.15895621 L2.30769231,28.8123969 C2.30769231,29.7168983 2.66307692,30.5691294 3.31153846,31.2145525 L12.0415385,39.8914021 C13.1884615,40.9595318 13.8461538,42.4617313 13.8461538,44.0093831 L13.8461538,47.7273836 L23.0769231,47.7273836 Z"/>
</svg>
