<svg width="640" height="480" xmlns="http://www.w3.org/2000/svg" xmlns:svg="http://www.w3.org/2000/svg" xmlns:xlink="http://www.w3.org/1999/xlink">
 <!-- Created with SVG-edit - http://svg-edit.googlecode.com/ -->
 <defs>
  <symbol id="svg_22" viewBox="0 0 64 64" xmlns="http://www.w3.org/2000/svg">
   <path id="svg_1" d="m35,45l2,0l0,2l-2,0l0,-2z"/>
   <path id="svg_2" d="m27,45l2,0l0,2l-2,0l0,-2z"/>
   <path id="svg_3" d="m31,45l2,0l0,2l-2,0l0,-2z"/>
   <path id="svg_5" d="m32,19c-5.514,0 -10,4.486 -10,10s4.486,10 10,10s10,-4.486 10,-10s-4.486,-10 -10,-10zm0,18c-0.313,0 -0.983,-1.023 -1.462,-3l2.924,0c-0.479,1.977 -1.149,3 -1.462,3zm-1.819,-5c-0.077,-0.614 -0.134,-1.277 -0.161,-2l3.962,0c-0.027,0.723 -0.085,1.386 -0.161,2l-3.64,0zm1.819,-11c0.313,0 0.983,1.023 1.462,3l-2.924,0c0.479,-1.977 1.149,-3 1.462,-3zm1.819,5c0.077,0.614 0.134,1.277 0.161,2l-3.962,0c0.027,-0.723 0.085,-1.386 0.161,-2l3.64,0zm-5.8,2l-3.95,0c0.088,-0.698 0.263,-1.369 0.52,-2l3.579,0c-0.074,0.657 -0.125,1.327 -0.149,2zm-3.95,2l3.95,0c0.024,0.673 0.075,1.343 0.149,2l-3.579,0c-0.256,-0.631 -0.432,-1.302 -0.52,-2zm11.912,0l3.95,0c-0.088,0.698 -0.263,1.369 -0.52,2l-3.579,0c0.074,-0.657 0.125,-1.327 0.149,-2zm0,-2c-0.024,-0.673 -0.075,-1.343 -0.149,-2l3.579,0c0.256,0.631 0.432,1.302 0.52,2l-3.95,0zm2.254,-4l-2.719,0c-0.192,-0.919 -0.44,-1.771 -0.752,-2.498c1.373,0.508 2.57,1.377 3.471,2.498zm-8.999,-2.498c-0.312,0.727 -0.56,1.579 -0.752,2.498l-2.719,0c0.901,-1.121 2.098,-1.99 3.471,-2.498zm-3.471,12.498l2.719,0c0.192,0.919 0.44,1.771 0.752,2.498c-1.373,-0.508 -2.57,-1.377 -3.471,-2.498zm8.999,2.498c0.312,-0.727 0.56,-1.579 0.752,-2.498l2.719,0c-0.901,1.121 -2.098,1.99 -3.471,2.498z"/>
   <path id="svg_6" d="m63,15.764l0,-5.527l-2.625,-0.718c-0.086,-0.229 -0.181,-0.457 -0.286,-0.684l1.35,-2.367l-3.908,-3.907l-2.365,1.351c-0.226,-0.104 -0.455,-0.2 -0.685,-0.286l-0.718,-2.626l-5.526,0l-0.718,2.625c-0.23,0.086 -0.459,0.182 -0.685,0.286l-2.365,-1.351l-3.908,3.907l1.35,2.367c-0.104,0.227 -0.2,0.455 -0.286,0.684l-2.625,0.718l0,0.764l-14,0l0,-10l-24,0l0,20l4,0l0,11.522c-2.41,1.616 -4,4.364 -4,7.478l0,0.193c0,2.036 0.7,4.032 1.972,5.623l2.028,2.535l0,1.649c0,2.757 2.243,5 5,5c2.414,0 4.434,-1.721 4.899,-4l6.82,0l-1.5,6l-3.219,0c-1.654,0 -3,1.346 -3,3l0,3l36,0l0,-3c0,-1.654 -1.346,-3 -3,-3l-3.219,0l-1.5,-6l11.719,0c2.414,0 4.434,-1.721 4.899,-4l1.101,0c1.654,0 3,-1.346 3,-3l0,-8c0,-1.654 -1.346,-3 -3,-3l-1,0l0,-11.029l2.439,-2.439l-1.35,-2.367c0.104,-0.227 0.2,-0.455 0.286,-0.684l2.625,-0.717zm-10,15.822l-1.879,-1.88c-0.45,-0.448 -1.072,-0.706 -1.707,-0.706c-1.331,0 -2.414,1.083 -2.414,2.414l0,1.586l-1,0c-1.654,0 -3,1.346 -3,3l0,5l-24.038,0c0.024,-0.268 0.038,-0.537 0.038,-0.807l0,-0.193c0,-4.625 -3.507,-8.442 -8,-8.941l0,-10.059l14,0l0,-4l16.842,0c0.024,0.055 0.044,0.11 0.069,0.165l-1.35,2.367l3.908,3.907l2.365,-1.351c0.226,0.104 0.455,0.2 0.685,0.286l0.718,2.626l4.763,0l0,6.586zm-30,-13.55l-6.352,-4.62c0.124,-0.132 0.242,-0.27 0.352,-0.416l6,-8l0,13.036zm-7.6,-6.236c-0.563,0.752 -1.461,1.2 -2.4,1.2s-1.837,-0.448 -2.4,-1.199l-6.601,-8.801l18.001,0l-6.6,8.8zm-6.4,1.201c0.11,0.146 0.228,0.284 0.352,0.416l-6.352,4.619l0,-13.036l6,8.001zm2.104,1.615c0.596,0.245 1.239,0.384 1.896,0.384s1.299,-0.139 1.896,-0.384l6.029,4.384l-15.85,0l6.029,-4.384zm27.896,-1.616l0,2l-14,0l0,-2l14,0zm-32,8l2,0l0,10.059c-0.694,0.077 -1.362,0.24 -2,0.466l0,-10.525zm-2.466,23.566c-0.989,-1.236 -1.534,-2.79 -1.534,-4.373l0,-0.193c0,-3.859 3.14,-7 7,-7s7,3.141 7,7l0,0.193c0,1.583 -0.545,3.137 -1.534,4.373l-1.946,2.434l-2.52,0l0,-4.184c1.161,-0.414 2,-1.514 2,-2.816c0,-1.654 -1.346,-3 -3,-3s-3,1.346 -3,3c0,1.302 0.839,2.402 2,2.816l0,4.184l-2.52,0l-1.946,-2.434zm4.466,-4.566c0,-0.552 0.449,-1 1,-1s1,0.448 1,1s-0.449,1 -1,1s-1,-0.448 -1,-1zm1,13c-1.654,0 -3,-1.346 -3,-3l0,-1l6,0l0,1c0,1.654 -1.346,3 -3,3zm38,7l0,1l-32,0l0,-1c0,-0.552 0.449,-1 1,-1l30,0c0.551,0 1,0.448 1,1zm-6.281,-3l-19.438,0l1.5,-6l16.438,0l1.5,6zm12.281,-8l-39,0l0,-0.649l2.028,-2.534c0.674,-0.843 1.182,-1.801 1.515,-2.816l24.457,0l0,1c0,1.654 1.346,3 3,3l10.816,0c-0.414,1.16 -1.514,1.999 -2.816,1.999zm7,-13l0,8c0,0.552 -0.449,1 -1,1l-14,0c-0.551,0 -1,-0.448 -1,-1l0,-8c0,-0.552 0.449,-1 1,-1l3,0l0,-3.586c0,-0.337 0.467,-0.531 0.707,-0.293l3.879,3.879l6.414,0c0.551,0 1,0.448 1,1zm-6,-3l0,-10.842c0.055,-0.024 0.111,-0.044 0.166,-0.069l1.834,1.047l0,9.864l-2,0zm3.807,-18.163l-0.162,0.524c-0.142,0.459 -0.334,0.921 -0.572,1.371l-0.256,0.485l1.129,1.979l-1.75,1.749l-1.979,-1.13l-0.486,0.258c-0.445,0.236 -0.906,0.429 -1.369,0.572l-0.525,0.161l-0.6,2.194l-2.474,0l-0.6,-2.193l-0.525,-0.161c-0.463,-0.144 -0.924,-0.336 -1.369,-0.572l-0.486,-0.258l-1.979,1.13l-1.75,-1.749l1.129,-1.979l-0.256,-0.485c-0.238,-0.45 -0.43,-0.912 -0.572,-1.371l-0.162,-0.524l-2.193,-0.602l0,-2.473l2.193,-0.601l0.162,-0.524c0.142,-0.459 0.334,-0.921 0.572,-1.371l0.256,-0.485l-1.129,-1.979l1.75,-1.749l1.979,1.13l0.486,-0.258c0.445,-0.236 0.906,-0.429 1.369,-0.572l0.525,-0.161l0.6,-2.193l2.474,0l0.6,2.193l0.525,0.161c0.463,0.144 0.924,0.336 1.369,0.572l0.486,0.258l1.979,-1.13l1.75,1.749l-1.129,1.979l0.256,0.485c0.238,0.45 0.43,0.912 0.572,1.371l0.162,0.524l2.193,0.602l0,2.473l-2.193,0.6z"/>
   <path id="svg_7" d="m51,7c-3.309,0 -6,2.691 -6,6s2.691,6 6,6s6,-2.691 6,-6s-2.691,-6 -6,-6zm0,10c-2.206,0 -4,-1.794 -4,-4s1.794,-4 4,-4s4,1.794 4,4s-1.794,4 -4,4z"/>
   <path id="svg_8" d="m47,41l8,0l0,2l-8,0l0,-2z"/>
   <path id="svg_10" d="m57,41l2,0l0,2l-2,0l0,-2z"/>
   <path id="svg_11" d="m47,37l12,0l0,2l-12,0l0,-2z"/>
  </symbol>
 </defs>
 <g>
  <title>Layer 1</title>
  <g id="svg_4"/>
  <g id="svg_9"/>
  <g id="svg_45"/>
  <g id="svg_12"/>
  <use style="--darkreader-inline-fill:#067217;" id="svg_23" xlink:href="#svg_22" transform="matrix(1.2327367893513852,0,0,1.0092369933606018,-71.51647337784411,-2.944830828653945) " y="0" x="0" fill="#00cd69"/>
  <g id="svg_24"/>
 </g>
</svg>