<svg width="46" height="46" viewBox="0 0 46 46" fill="none" xmlns="http://www.w3.org/2000/svg">
<path d="M23 46C35.7025 46 46 35.7025 46 23C46 10.2975 35.7025 0 23 0C10.2975 0 0 10.2975 0 23C0 35.7025 10.2975 46 23 46Z" fill="#4267B2"/>
<path d="M25.1466 36.6467V24.2267H29.2866L29.9 19.32H25.1466V16.2533C25.1466 14.8733 25.6066 13.9533 27.6 13.9533H30.2066V9.50667C29.7466 9.50667 28.2133 9.35333 26.5266 9.35333C22.8466 9.35333 20.24 11.6533 20.24 15.7933V19.32H16.1V24.2267H20.24V36.6467H25.1466Z" fill="white"/>
</svg>
