<svg id="SvgjsSvg1224" xmlns="http://www.w3.org/2000/svg" version="1.1" xmlns:xlink="http://www.w3.org/1999/xlink" xmlns:svgjs="http://svgjs.com/svgjs" width="38" height="37" viewBox="0 0 38 37"><title>house (1)</title><desc>Created with Avocode.</desc><defs id="SvgjsDefs1225"></defs><path id="SvgjsPath1226" d="M760.87 592.33V586H752V592.33ZM753.27 589.17H759.6V591.0699999999999H753.27ZM759.6 587.9H753.27V587.27H759.6Z " fill="#00cd69" fill-opacity="1" transform="matrix(1,0,0,1,-743,-570)"></path><path id="SvgjsPath1227" d="M752 601.6H760.87V594H752ZM755.8 597.17H753.27V595.27H755.8ZM755.8 598.43V600.3299999999999H753.27V598.43ZM757.07 598.43H759.6V600.3299999999999H757.07ZM757.07 597.17V595.27H759.6V597.17Z " fill="#00cd69" fill-opacity="1" transform="matrix(1,0,0,1,-743,-570)"></path><path id="SvgjsPath1228" d="M771.87 592.33V586H763V592.33ZM764.27 590.43H770.6V591.0699999999999H764.27ZM770.6 589.17H764.27V587.27H770.6Z " fill="#00cd69" fill-opacity="1" transform="matrix(1,0,0,1,-743,-570)"></path><path id="SvgjsPath1229" d="M779.73 600.63V601.26H779.1V600.63C779.1 600.28 778.82 600 778.47 600C778.12 600 777.83 600.28 777.83 600.63V601.26H777.2V588.47C777.5300000000001 588.62 777.88 588.7 778.23 588.7C778.91 588.7 779.58 588.4200000000001 780.08 587.88C780.5600000000001 587.37 780.8100000000001 586.67 780.75 585.96C780.7 585.26 780.35 584.6 779.79 584.1700000000001L763.7199999999999 571.6L761.9999999999999 570L760.3199999999999 571.57L744.2099999999999 584.1700000000001C743.65 584.6 743.3 585.2600000000001 743.2499999999999 585.96C743.1899999999999 586.6700000000001 743.4399999999999 587.37 743.9199999999998 587.88C744.6699999999998 588.7 745.8299999999998 588.9 746.7999999999998 588.47V601.26H746.1699999999998V600.63C746.1699999999998 600.28 745.8799999999999 600 745.5299999999999 600C745.1799999999998 600 744.8999999999999 600.28 744.8999999999999 600.63V601.26H744.2699999999999V600.63C744.2699999999999 600.28 743.9799999999999 600 743.6299999999999 600C743.2799999999999 600 742.9999999999999 600.28 742.9999999999999 600.63V606.33C742.9999999999999 606.6800000000001 743.2799999999999 606.96 743.6299999999999 606.96C743.9799999999999 606.96 744.2699999999999 606.6800000000001 744.2699999999999 606.33V605.7H744.8999999999999V606.33C744.8999999999999 606.6800000000001 745.1799999999998 606.96 745.5299999999999 606.96C745.8799999999999 606.96 746.1699999999998 606.6800000000001 746.1699999999998 606.33V605.7H746.7999999999998V606.96H777.1999999999998V605.7H777.8299999999998V606.33C777.8299999999998 606.6800000000001 778.1199999999998 606.96 778.4699999999998 606.96C778.8199999999998 606.96 779.0999999999998 606.6800000000001 779.0999999999998 606.33V605.7H779.7299999999998V606.33C779.7299999999998 606.6800000000001 780.0199999999998 606.96 780.3699999999998 606.96C780.7199999999998 606.96 780.9999999999998 606.6800000000001 780.9999999999998 606.33V600.63C780.9999999999998 600.28 780.7199999999998 600 780.3699999999998 600C780.0199999999998 600 779.7299999999998 600.28 779.7299999999998 600.63ZM744.51 586.06C744.54 585.6999999999999 744.71 585.38 744.99 585.16L761.14 572.53L762 571.73L762.9 572.5600000000001L779.01 585.1600000000001C779.29 585.3800000000001 779.46 585.7 779.49 586.0600000000001C779.52 586.4200000000001 779.4 586.7600000000001 779.16 587.0200000000001C778.7099999999999 587.5000000000001 777.98 587.57 777.4599999999999 587.1600000000001L777.1999999999999 586.97L761.9999999999999 575.25L747.0499999999998 586.78L746.5499999999998 587.16C746.0199999999999 587.5699999999999 745.2899999999998 587.5 744.8399999999998 587.02C744.5999999999998 586.76 744.4799999999998 586.42 744.5099999999998 586.06ZM744.27 602.53H744.9V604.43H744.27ZM746.17 602.53H746.8V604.43H746.17ZM764.53 596.2H770.87V605.7H764.53ZM772.13 605.7V594.9300000000001H763.27V605.7H748.0699999999999V587.59L761.9999999999999 576.85L775.9299999999998 587.59V605.7ZM777.2 602.53H777.83V604.43H777.2ZM779.1 602.53H779.73V604.43H779.1Z " fill="#00cd69" fill-opacity="1" transform="matrix(1,0,0,1,-743,-570)"></path></svg>