<svg id="SvgjsSvg1190" xmlns="http://www.w3.org/2000/svg" version="1.1" xmlns:xlink="http://www.w3.org/1999/xlink" xmlns:svgjs="http://svgjs.com/svgjs" width="54" height="40" viewBox="0 0 54 40"><title>laptop</title><desc>Created with Avocode.</desc><defs id="SvgjsDefs1191"></defs><path id="SvgjsPath1192" d="M531.41 451H492.55999999999995V477.18L484.99999999999994 490.86H538.9699999999999L531.41 477.18ZM529.73 452.7V476.55H494.25V452.7ZM530.07 478.25L536.1 489.15H487.87L493.9 478.25Z " fill="#00cd69" fill-opacity="1" transform="matrix(1,0,0,1,-485,-451)"></path><path id="SvgjsPath1193" d="M497 483V481H528V483Z " fill="#00cd69" fill-opacity="1" transform="matrix(1,0,0,1,-485,-451)"></path><path id="SvgjsPath1194" d="M508 487V485H515V487Z " fill="#00cd69" fill-opacity="1" transform="matrix(1,0,0,1,-485,-451)"></path><path id="SvgjsPath1195" d="M507 464.92L508.15 466.16C508.29999999999995 466.03000000000003 511.71999999999997 462.91 515.8199999999999 466.20000000000005L516.8799999999999 464.87000000000006C511.6099999999999 460.65000000000003 507.0499999999999 464.88000000000005 506.9999999999999 464.9200000000001Z " fill="#00cd69" fill-opacity="1" transform="matrix(1,0,0,1,-485,-451)"></path><path id="SvgjsPath1196" d="M505 462.76L506.16 464C506.38000000000005 463.79 511.76000000000005 458.88 518.2 464.05L519.26 462.71000000000004C511.64 456.61 505.07 462.70000000000005 505 462.76000000000005Z " fill="#00cd69" fill-opacity="1" transform="matrix(1,0,0,1,-485,-451)"></path><path id="SvgjsPath1197" d="M502 459.7L503.16 460.94C503.47 460.64 511.03000000000003 453.71999999999997 520.09 460.98L521.14 459.65000000000003C510.91999999999996 451.45000000000005 502.09 459.61 502 459.70000000000005Z " fill="#00cd69" fill-opacity="1" transform="matrix(1,0,0,1,-485,-451)"></path><path id="SvgjsPath1198" d="M510 471.5C510 470.11929 511.11929 469 512.5 469C513.88071 469 515 470.11929 515 471.5C515 472.88071 513.88071 474 512.5 474C511.11929 474 510 472.88071 510 471.5Z " fill="#00cd69" fill-opacity="1" transform="matrix(1,0,0,1,-485,-451)"></path></svg>