<svg id="SvgjsSvg1184" xmlns="http://www.w3.org/2000/svg" version="1.1" xmlns:xlink="http://www.w3.org/1999/xlink" xmlns:svgjs="http://svgjs.com/svgjs" width="24" height="42" viewBox="0 0 24 42"><title>smartphone (1)</title><desc>Created with Avocode.</desc><defs id="SvgjsDefs1185"></defs><path id="SvgjsPath1186" d="M253.08 450C251.38000000000002 450 250 451.38 250 453.08V488.91999999999996C250 490.61999999999995 251.38 491.99999999999994 253.08 491.99999999999994H270.72C272.42 491.99999999999994 273.8 490.61999999999995 273.8 488.91999999999996V453.0799999999999C273.8 451.37999999999994 272.42 449.99999999999994 270.72 449.99999999999994ZM272.4 455.6V482.20000000000005H251.39999999999998V455.6ZM270.72 451.4C271.64000000000004 451.4 272.40000000000003 452.15999999999997 272.40000000000003 453.08V454.2H251.40000000000003V453.08C251.40000000000003 452.15999999999997 252.16000000000003 451.4 253.08000000000004 451.4ZM253.08 490.6C252.16000000000003 490.6 251.4 489.84000000000003 251.4 488.92V483.6H272.4V488.92C272.4 489.84000000000003 271.64 490.6 270.71999999999997 490.6Z " fill="#00cd69" fill-opacity="1" transform="matrix(1,0,0,1,-250,-450)"></path><path id="SvgjsPath1187" d="M259 486.8C259 488.34000000000003 260.26 489.6 261.8 489.6C263.34000000000003 489.6 264.6 488.34000000000003 264.6 486.8C264.6 485.26 263.34000000000003 484 261.8 484C260.26 484 259 485.26 259 486.8ZM260.4 486.8C260.4 486.03000000000003 261.03 485.40000000000003 261.79999999999995 485.40000000000003C262.56999999999994 485.40000000000003 263.19999999999993 486.03000000000003 263.19999999999993 486.8C263.19999999999993 487.57 262.56999999999994 488.2 261.79999999999995 488.2C261.03 488.2 260.4 487.57 260.4 486.8Z " fill="#00cd69" fill-opacity="1" transform="matrix(1,0,0,1,-250,-450)"></path><path id="SvgjsPath1188" d="M259.7 453.4H262.5C262.89 453.4 263.2 453.09 263.2 452.7C263.2 452.31 262.89 452 262.5 452H259.7C259.31 452 259 452.31 259 452.7C259 453.09 259.31 453.4 259.7 453.4Z " fill="#00cd69" fill-opacity="1" transform="matrix(1,0,0,1,-250,-450)"></path><path id="SvgjsPath1189" d="M263.7 453.4H264.4C264.78999999999996 453.4 265.09999999999997 453.09 265.09999999999997 452.7C265.09999999999997 452.31 264.78999999999996 452 264.4 452H263.7C263.31 452 263 452.31 263 452.7C263 453.09 263.31 453.4 263.7 453.4Z " fill="#00cd69" fill-opacity="1" transform="matrix(1,0,0,1,-250,-450)"></path></svg>