<svg width="640" height="480" xmlns="http://www.w3.org/2000/svg" xmlns:svg="http://www.w3.org/2000/svg" xmlns:xlink="http://www.w3.org/1999/xlink">
 <!-- Created with SVG-edit - http://svg-edit.googlecode.com/ -->
 <defs>
  <symbol id="svg_14" viewBox="0 0 64 64" xmlns="http://www.w3.org/2000/svg">
   <g id="svg_1">
    <path id="svg_2" d="m51,15c-0.552,0 -1,-0.448 -1,-1l-2,0c0,1.654 1.346,3 3,3l0,2l2,0l0,-2l3,0l0,-3c0,-1.654 -1.346,-3 -3,-3l-2,0c-0.552,0 -1,-0.448 -1,-1l0,-1l3,0c0.552,0 1,0.448 1,1l2,0c0,-1.654 -1.346,-3 -3,-3l0,-2l-2,0l0,2l-3,0l0,3c0,1.654 1.346,3 3,3l2,0c0.552,0 1,0.448 1,1l0,1l-3,0z"/>
    <path id="svg_3" d="m60,37l-5.553,0c0.362,-1.636 0.553,-3.311 0.553,-5c0,-3.162 -0.628,-6.202 -1.858,-9.06c5.531,-0.573 9.858,-5.26 9.858,-10.94c0,-6.065 -4.935,-11 -11,-11c-5.679,0 -10.366,4.327 -10.94,9.857c-2.859,-1.23 -5.898,-1.857 -9.06,-1.857c-4.648,0 -9.191,1.42 -13,4.028l0,-9.028c0,-1.654 -1.346,-3 -3,-3l-12,0c-1.654,0 -3,1.346 -3,3l0,20c0,1.654 1.346,3 3,3l5.554,0c-0.278,1.254 -0.448,2.532 -0.513,3.821c-3.586,2.892 -6.162,5.824 -7.444,8.5c-0.396,0.828 -0.597,1.773 -0.597,2.805c0,3.359 2.353,6.206 5.593,6.768c0.927,0.16 1.936,0.238 3.014,0.238c1.909,0 4.035,-0.256 6.282,-0.727c4.325,4.253 10.022,6.595 16.111,6.595c4.647,0 9.191,-1.42 13,-4.028l0,9.028c0,1.654 1.346,3 3,3l12,0c1.654,0 3,-1.346 3,-3l0,-20c0,-1.654 -1.346,-3 -3,-3zm1,3l0,1l-14,0l0,-1c0,-0.552 0.448,-1 1,-1l12,0c0.552,0 1,0.448 1,1zm0,3l0,14l-14,0l0,-14l14,0zm-13,-6c-1.654,0 -3,1.346 -3,3l0,2l-3.076,0c0.41,-1.8 0.718,-3.728 0.894,-5.768l1.796,1.796l1.006,-5.028l7.346,0c-0.064,1.354 -0.258,2.692 -0.577,4l-4.389,0zm-16,16c-2.592,0 -5.121,-2.811 -6.856,-7.567c1.047,-0.444 2.095,-0.917 3.139,-1.433l11.022,0c-1.666,5.393 -4.379,9 -7.305,9zm0,-11c3.38,-1.98 6.415,-4.214 8.865,-6.523c-0.174,2.317 -0.523,4.512 -1.01,6.523l-7.855,0zm5.214,-11.372c-0.129,0.125 -0.272,0.248 -0.405,0.372l-13.787,0c0.069,-3.224 0.457,-6.287 1.105,-9l15.756,0c0.303,1.274 0.545,2.636 0.73,4.058l-6.642,1.328l3.243,3.242zm-25.488,12.236c-1.684,0.184 -3.208,0.179 -4.512,-0.022c0.366,-1.147 1.245,-2.496 2.76,-4.231c0.441,1.47 1.023,2.895 1.752,4.253zm2.126,-0.318c-1.693,-2.906 -2.657,-6.174 -2.817,-9.546l9.988,0c0.05,2.496 0.283,4.919 0.698,7.234c-2.741,1.081 -5.42,1.86 -7.869,2.312zm9.761,-3.106c-0.347,-2.066 -0.544,-4.221 -0.59,-6.44l11.444,0c-2.464,1.938 -5.357,3.768 -8.472,5.326c-0.792,0.397 -1.588,0.764 -2.382,1.114zm8.387,-28.44c2.937,0 5.668,3.537 7.335,9l-14.66,0c1.648,-5.395 4.342,-9 7.325,-9zm12.474,9l-3.062,0c-1.031,-3.567 -2.506,-6.446 -4.26,-8.362c1.339,0.338 2.641,0.813 3.902,1.419c0.261,2.729 1.528,5.163 3.42,6.943zm-1.897,5.665c-0.17,-1.276 -0.39,-2.5 -0.654,-3.665l5.521,0c1.086,0.497 2.261,0.828 3.5,0.947c1.215,2.535 1.897,5.236 2.027,8.053l-6.951,0l1.255,-6.274l-4.698,0.939zm9.423,-22.665c4.963,0 9,4.037 9,9s-4.037,9 -9,9s-9,-4.037 -9,-9s4.037,-9 9,-9zm-25.218,8.667c-1.747,1.928 -3.201,4.807 -4.214,8.333l-3.568,0l0,-4.474c2.305,-1.821 4.959,-3.134 7.782,-3.859zm-9.782,9.333l-14,0l0,-14l14,0l0,14zm-13,-18l12,0c0.552,0 1,0.448 1,1l0,1l-14,0l0,-1c0,-0.552 0.448,-1 1,-1zm-1,21l0,-1l14,0l0,1c0,0.552 -0.448,1 -1,1l-12,0c-0.552,0 -1,-0.448 -1,-1zm13,3c1.654,0 3,-1.346 3,-3l0,-2l3.057,0c-0.616,2.729 -0.982,5.769 -1.045,9l-9.978,0c0.064,-1.354 0.258,-2.691 0.577,-4l4.389,0zm-12.599,13.185c0.989,-2.065 2.972,-4.423 5.648,-6.762c0.059,0.955 0.183,1.9 0.358,2.835c-2.33,2.505 -3.611,4.377 -4.125,6.062c-0.966,-0.4 -1.646,-0.954 -1.976,-1.64l-0.057,-0.133c0.046,-0.125 0.096,-0.245 0.152,-0.362zm3.534,6.738c-1.837,-0.318 -3.269,-1.69 -3.755,-3.459c0.521,0.364 1.131,0.666 1.828,0.905c4.828,1.649 13.419,-0.017 21.882,-4.254c4.919,-2.462 9.343,-5.583 12.457,-8.788l0.688,-0.707l-2.006,-2.006l6.697,-1.34l-1.34,6.697l-1.928,-1.928l-0.707,0.742c-3.186,3.349 -7.792,6.63 -12.971,9.24c-7.633,3.846 -15.82,5.769 -20.845,4.898zm16.357,-0.733c0.948,2.578 2.124,4.645 3.457,6.127c-3.135,-0.803 -6.038,-2.314 -8.516,-4.476c1.649,-0.443 3.344,-0.994 5.059,-1.651zm13.873,6.154c1.752,-1.925 3.221,-4.804 4.246,-8.344l3.589,0l0,4.473c-2.32,1.832 -4.993,3.149 -7.835,3.871zm22.835,8.656l-12,0c-0.552,0 -1,-0.448 -1,-1l0,-1l14,0l0,1c0,0.552 -0.448,1 -1,1z"/>
    <path id="svg_5" d="m15,19l0,-10l-10,0l0,10l10,0zm-8,-8l6,0l0,6l-6,0l0,-6z"/>
    <path id="svg_6" d="m59,55l0,-10l-10,0l0,10l10,0zm-8,-8l6,0l0,6l-6,0l0,-6z"/>
   </g>
  </symbol>
 </defs>
 <g>
  <title>Layer 1</title>
  <g id="svg_4"/>
  <g id="svg_9"/>
  <g id="svg_45"/>
  <g id="svg_12"/>
  <g id="svg_24"/>
  <use style="--darkreader-inline-fill:#00cd69;" id="svg_15" xlink:href="#svg_14" transform="matrix(1.1630769353546606,0,0,1.0036911459149103,-107.97876733331674,-3.8800508854043905) " y="1.48699" x="46.20886" fill="#00cd69"/>
  <g id="svg_16"/>
 </g>
</svg>