<svg width="640" height="480" xmlns="http://www.w3.org/2000/svg" xmlns:svg="http://www.w3.org/2000/svg" xmlns:xlink="http://www.w3.org/1999/xlink">
 <!-- Created with SVG-edit - http://svg-edit.googlecode.com/ -->
 <defs>
  <symbol viewBox="0 0 496 496" y="0px" x="0px" id="svg_8" xmlns:xlink="http://www.w3.org/1999/xlink" xmlns="http://www.w3.org/2000/svg">
   <g>
    <g>
     <g>
      <path d="m360,240c0,-61.76 -50.24,-112 -112,-112s-112,50.24 -112,112s50.24,112 112,112s112,-50.24 112,-112zm-112,96c-52.936,0 -96,-43.064 -96,-96c0,-52.936 43.064,-96 96,-96c52.936,0 96,43.064 96,96c0,52.936 -43.064,96 -96,96z"/>
      <path d="m256,176.408l0,-16.408l-16,0l0,16.408c-17.952,2.016 -32,17.112 -32,35.592c0,19.848 16.152,36 36,36l8,0c11.032,0 20,8.968 20,20c0,11.032 -8.968,20 -20,20l-8,0c-11.032,0 -20,-8.968 -20,-20l0,-4l-16,0l0,4c0,18.48 14.048,33.576 32,35.592l0,16.408l16,0l0,-16.408c17.952,-2.016 32,-17.112 32,-35.592c0,-19.848 -16.152,-36 -36,-36l-8,0c-11.032,0 -20,-8.968 -20,-20s8.968,-20 20,-20l8,0c11.032,0 20,8.968 20,20l0,4l16,0l0,-4c0,-18.48 -14.048,-33.576 -32,-35.592z"/>
      <path d="m16,64l208,0l0,48l16,0l0,-72c0,-22.056 -17.944,-40 -40,-40l-160,0c-22.056,0 -40,17.944 -40,40l0,312l16,0l0,-288zm0,-24c0,-13.232 10.768,-24 24,-24l160,0c13.232,0 24,10.768 24,24l0,8l-208,0l0,-8z"/>
      <rect height="16" width="80" y="400" x="80"/>
      <path d="m0,408c0,22.056 17.944,40 40,40l160,0c22.056,0 40,-17.944 40,-40l0,-40l-240,0l0,40zm16,-24l208,0l0,24c0,13.232 -10.768,24 -24,24l-160,0c-13.232,0 -24,-10.768 -24,-24l0,-24z"/>
      <path d="m456,48l-160,0c-22.056,0 -40,17.944 -40,40l0,24l8,0l8,0l208,0l0,288l16,0l0,-312c0,-22.056 -17.944,-40 -40,-40zm24,48l-208,0l0,-8c0,-13.232 10.768,-24 24,-24l160,0c13.232,0 24,10.768 24,24l0,8z"/>
      <rect height="16" width="80" y="448" x="336"/>
      <path d="m272,368l-16,0l0,88c0,22.056 17.944,40 40,40l160,0c22.056,0 40,-17.944 40,-40l0,-40l-224,0l0,-48zm208,64l0,24c0,13.232 -10.768,24 -24,24l-160,0c-13.232,0 -24,-10.768 -24,-24l0,-24l208,0z"/>
      <polygon points="376,256 376,272 400,272 400,328 466,240 400,152 400,208 376,208 376,224 416,224 416,200 446,240 416,280      416,256    "/>
      <polygon points="120,224 120,208 96,208 96,152 30,240 96,328 96,272 120,272 120,256 80,256 80,280 50,240 80,200 80,224    "/>
      <rect height="16" width="16" y="368" x="384"/>
      <rect height="16" width="16" y="368" x="352"/>
      <rect height="16" width="16" y="368" x="320"/>
      <rect height="16" width="16" y="96" x="160"/>
      <rect height="16" width="16" y="96" x="128"/>
      <rect height="16" width="16" y="96" x="96"/>
     </g>
    </g>
   </g>
   <g/>
   <g/>
   <g/>
   <g/>
   <g/>
   <g/>
   <g/>
   <g/>
   <g/>
   <g/>
   <g/>
   <g/>
   <g/>
   <g/>
   <g/>
  </symbol>
 </defs>
 <g>
  <title>Layer 1</title>
  <g id="svg_4"/>
  <g id="svg_9"/>
  <g id="svg_45"/>
  <g id="svg_12"/>
  <g id="svg_24"/>
  <g id="svg_16"/>
  <use fill="#00cd69" x="0" y="0" transform="matrix(0.9025888020182292,0,0,0.9869162972950106,20.397373766727455,4.059440612792968) " xlink:href="#svg_8" id="svg_10"/>
  <g id="svg_11"/>
 </g>
</svg>