<svg id="SvgjsSvg1256" xmlns="http://www.w3.org/2000/svg" version="1.1" xmlns:xlink="http://www.w3.org/1999/xlink" xmlns:svgjs="http://svgjs.com/svgjs" width="30" height="30" viewBox="0 0 30 30"><title>percentage</title><desc>Created with Avocode.</desc><defs id="SvgjsDefs1257"></defs><path id="SvgjsPath1258" d="M747 720.05L776.05 691L776.9399999999999 691.88L747.88 720.9399999999999Z " fill="#00cd69" fill-opacity="1" transform="matrix(1,0,0,1,-747,-691)"></path><path id="SvgjsPath1259" d="M759.99 697.49C759.99 693.91 757.08 691 753.49 691C749.91 691 747 693.91 747 697.49C747 701.08 749.91 703.99 753.49 703.99C757.08 703.99 759.99 701.08 759.99 697.49ZM758.76 697.49C758.76 700.4 756.4 702.76 753.49 702.76C750.59 702.76 748.23 700.4 748.23 697.49C748.23 694.59 750.59 692.23 753.49 692.23C756.4 692.23 758.76 694.59 758.76 697.49Z " fill="#00cd69" fill-opacity="1" transform="matrix(1,0,0,1,-747,-691)"></path><path id="SvgjsPath1260" d="M764 714.49C764 718.08 766.91 720.99 770.49 720.99C774.08 720.99 776.99 718.08 776.99 714.49C776.99 710.91 774.08 708 770.49 708C766.91 708 764 710.91 764 714.49ZM765.23 714.49C765.23 711.59 767.59 709.23 770.49 709.23C773.4 709.23 775.76 711.59 775.76 714.49C775.76 717.4 773.4 719.76 770.49 719.76C767.59 719.76 765.23 717.4 765.23 714.49Z " fill="#00cd69" fill-opacity="1" transform="matrix(1,0,0,1,-747,-691)"></path></svg>