<?xml version="1.0" encoding="UTF-8" standalone="no"?>
<svg width="104px" height="104px" viewBox="0 0 104 104" version="1.1" xmlns="http://www.w3.org/2000/svg" xmlns:xlink="http://www.w3.org/1999/xlink">
    <!-- Generator: Sketch 42 (36781) - http://www.bohemiancoding.com/sketch -->
    <title>support (1)</title>
    <desc>Created with Sketch.</desc>
    <defs></defs>
    <g id="Page-1" stroke="none" stroke-width="1" fill="none" fill-rule="evenodd">
        <g id="support-(1)" fill-rule="nonzero" fill="#00cd69">
            <g id="Layer_1">
                <path d="M103.898537,86.5821138 L103.898537,15.1518699 L78.7332846,15.1518699 C73.2346016,6.08865041 63.3021789,0 51.9492683,0 C40.5963577,0 30.663935,6.08865041 25.165252,15.1518699 L0,15.1518699 L0,86.5821138 L32.4682927,86.5821138 L32.4682927,99.5694309 L23.8100813,99.5694309 L23.8100813,103.898537 L80.0884553,103.898537 L80.0884553,99.5694309 L71.4302439,99.5694309 L71.4302439,86.5821138 L103.898537,86.5821138 Z M4.32910569,19.4809756 L22.9558862,19.4809756 C21.4525366,23.1425366 20.6097561,27.1427317 20.6097561,31.3395122 L20.6097561,32.2156911 C17.3312195,34.3383902 15.1518699,38.0206667 15.1518699,42.2087805 C15.1518699,48.773252 20.4934959,54.1138211 27.0569106,54.1138211 L30.3037398,54.1138211 L30.3037398,30.3037398 L27.0569106,30.3037398 C26.347935,30.3037398 25.6569268,30.3775122 24.981561,30.4969431 C25.4322276,15.9948618 37.3398049,4.32910569 51.9492683,4.32910569 C66.5587317,4.32910569 78.4663089,15.9948618 78.9169756,30.4969431 C78.2416098,30.3775122 77.5506016,30.3037398 76.841626,30.3037398 L73.5947967,30.3037398 L73.5947967,54.1138211 L76.841626,54.1138211 C77.9682927,54.1138211 79.0545854,53.9461951 80.0884553,53.6521626 L80.0884553,58.4429268 L64.5377073,58.4429268 C63.6414472,55.928748 61.2610732,54.1138211 58.4429268,54.1138211 L51.9492683,54.1138211 C48.3684553,54.1138211 45.4556098,57.0266667 45.4556098,60.6074797 C45.4556098,64.1882927 48.3684553,67.1011382 51.9492683,67.1011382 L58.4429268,67.1011382 C61.2610732,67.1011382 63.6414472,65.2862114 64.5377073,62.7720325 L84.417561,62.7720325 L84.417561,51.3846667 C87.059626,49.1993984 88.7466667,45.8973984 88.7466667,42.2087805 C88.7466667,38.0206667 86.5673171,34.3383902 83.2887805,32.2156911 L83.2887805,31.3395122 C83.2887805,27.1427317 82.4457886,23.1425366 80.9426504,19.4809756 L99.5694309,19.4809756 L99.5694309,71.4302439 L4.32910569,71.4302439 L4.32910569,19.4809756 Z M25.9746341,34.71 L25.9746341,49.707561 C22.3071545,49.1812195 19.4809756,46.0189431 19.4809756,42.2087805 C19.4809756,38.3986179 22.3071545,35.2363415 25.9746341,34.71 Z M84.417561,42.2087805 C84.417561,46.0189431 81.5913821,49.1812195 77.9239024,49.707561 L77.9239024,34.71 C81.5913821,35.2363415 84.417561,38.3986179 84.417561,42.2087805 Z M60.6074797,60.6074797 C60.6074797,61.8007317 59.6372358,62.7720325 58.4429268,62.7720325 L51.9492683,62.7720325 C50.7549593,62.7720325 49.7847154,61.8007317 49.7847154,60.6074797 C49.7847154,59.4142276 50.7549593,58.4429268 51.9492683,58.4429268 L58.4429268,58.4429268 C59.6372358,58.4429268 60.6074797,59.4142276 60.6074797,60.6074797 Z M67.1011382,99.5694309 L36.7973984,99.5694309 L36.7973984,86.5821138 L67.1011382,86.5821138 L67.1011382,99.5694309 L67.1011382,99.5694309 Z M4.32910569,82.2530081 L4.32910569,75.7593496 L99.5694309,75.7593496 L99.5694309,82.2530081 L4.32910569,82.2530081 Z" id="Shape"></path>
            </g>
        </g>
    </g>
</svg>