<?xml version="1.0" encoding="UTF-8" standalone="no"?>
<svg width="34px" height="34px" viewBox="0 0 34 34" version="1.1" xmlns="http://www.w3.org/2000/svg" xmlns:xlink="http://www.w3.org/1999/xlink">
    <!-- Generator: Sketch 42 (36781) - http://www.bohemiancoding.com/sketch -->
    <title>taxes</title>
    <desc>Created with Sketch.</desc>
    <defs></defs>
    <g id="Page-1" stroke="none" stroke-width="1" fill="none" fill-rule="evenodd">
        <g id="taxes" fill-rule="nonzero" fill="#00cd69">
            <g id="Layer_1">
                <path d="M0.0144101563,3.72997266 L0.0144101563,26.0235469 L13.8152227,26.0235469 L13.8152227,3.72997266 L0.0144101563,3.72997266 Z M1.07604687,24.962043 L1.07604687,4.79160938 L12.7535859,4.79160938 L12.7535859,24.9619766 L1.07604687,24.9619766 L1.07604687,24.962043 Z" id="Shape"></path>
                <polygon id="Shape" points="8.24075 0 8.24075 3.21811328 9.29010156 3.21811328 9.29010156 1.04935156 27.8991914 1.04935156 27.8991914 32.9506484 9.29010156 32.9506484 9.29010156 26.5843477 8.24075 26.5843477 8.24075 34 28.948543 34 28.948543 0"></polygon>
                <rect id="Rectangle-path" x="22.0223711" y="2.65844141" width="4.26746484" height="1.04935156"></rect>
                <rect id="Rectangle-path" x="15.6560703" y="7.48557812" width="1.04935156" height="1.04935156"></rect>
                <rect id="Rectangle-path" x="17.824832" y="7.48557812" width="8.46500391" height="1.04935156"></rect>
                <rect id="Rectangle-path" x="15.6560703" y="9.58434766" width="1.04935156" height="1.04935156"></rect>
                <rect id="Rectangle-path" x="17.824832" y="9.58434766" width="8.46500391" height="1.04935156"></rect>
                <rect id="Rectangle-path" x="15.6560703" y="11.6831172" width="1.04935156" height="1.04935156"></rect>
                <rect id="Rectangle-path" x="17.824832" y="11.6831172" width="8.46500391" height="1.04935156"></rect>
                <rect id="Rectangle-path" x="15.6560703" y="13.8518789" width="1.04935156" height="1.04935156"></rect>
                <rect id="Rectangle-path" x="17.824832" y="13.8518789" width="8.46500391" height="1.04935156"></rect>
                <rect id="Rectangle-path" x="15.6560703" y="15.9506484" width="1.04935156" height="1.04935156"></rect>
                <rect id="Rectangle-path" x="17.824832" y="15.9506484" width="8.46500391" height="1.04935156"></rect>
                <rect id="Rectangle-path" x="15.6560703" y="18.0493516" width="1.04935156" height="1.04935156"></rect>
                <rect id="Rectangle-path" x="17.824832" y="18.0493516" width="8.46500391" height="1.04935156"></rect>
                <rect id="Rectangle-path" x="15.6560703" y="20.2181133" width="1.04935156" height="1.04935156"></rect>
                <rect id="Rectangle-path" x="17.824832" y="20.2181133" width="8.46500391" height="1.04935156"></rect>
                <rect id="Rectangle-path" x="15.6560703" y="22.3168828" width="1.04935156" height="1.04935156"></rect>
                <rect id="Rectangle-path" x="17.824832" y="22.3168828" width="8.46500391" height="1.04935156"></rect>
                <rect id="Rectangle-path" x="19.3639297" y="24.9753242" width="1.60902344" height="1.04935156"></rect>
                <rect id="Rectangle-path" x="22.0223711" y="24.9753242" width="4.26746484" height="1.04935156"></rect>
                <rect id="Rectangle-path" x="19.3639297" y="26.5843477" width="1.60902344" height="1.04935156"></rect>
                <rect id="Rectangle-path" x="22.0223711" y="26.5843477" width="4.26746484" height="1.04935156"></rect>
                <rect id="Rectangle-path" x="22.0223711" y="28.1234453" width="4.26746484" height="1.04935156"></rect>
                <rect id="Rectangle-path" x="10.8988594" y="30.7818867" width="5.8065625" height="1.04935156"></rect>
                <path d="M29.5082148,9.02175391 L29.5082148,14.3415586 L30.5575664,14.3415586 L30.5575664,10.077082 L31.3315313,10.0814648 L31.3315313,26.0236133 L33.9855898,26.0236133 L33.9855898,9.03795703 L29.5082148,9.02175391 Z M32.9239531,24.962043 L32.393168,24.962043 L32.393168,10.0996602 L32.9239531,10.0996602 L32.9239531,24.962043 Z" id="Shape"></path>
                <polygon id="Shape" points="31.3271484 5.87655469 31.3271484 8.53499609 32.3765664 8.53499609 32.3765664 6.92590625 32.9362383 6.92590625 32.9362383 8.53499609 33.9855898 8.53499609 33.9855898 5.87655469"></polygon>
                <polygon id="Shape" points="32.9362383 28.1234453 32.9362383 29.13375 32.697375 29.9563242 32.3765664 29.1120352 32.3765664 28.1234453 31.3271484 28.1234453 31.3271484 29.3046797 32.1012461 31.3415586 33.3879336 31.3415586 33.9855898 29.2829648 33.9855898 28.1234453"></polygon>
                <rect id="Rectangle-path" x="31.3268828" y="26.5843477" width="2.65844141" height="1.04935156"></rect>
                <path d="M1.60683203,5.32239453 L1.60683203,17 L12.2228672,17 L12.2228672,5.32239453 L1.60683203,5.32239453 Z M11.1612305,15.9383633 L2.66846875,15.9383633 L2.66846875,6.38403125 L11.1612305,6.38403125 L11.1612305,15.9383633 Z" id="Shape"></path>
                <rect id="Rectangle-path" x="1.87444922" y="18.0493516" width="1.04935156" height="1.04935156"></rect>
                <rect id="Rectangle-path" x="3.97321875" y="18.0493516" width="1.04935156" height="1.04935156"></rect>
                <rect id="Rectangle-path" x="6.14171484" y="18.0493516" width="1.04935156" height="1.04935156"></rect>
                <rect id="Rectangle-path" x="8.24048438" y="18.0493516" width="1.04935156" height="1.04935156"></rect>
                <rect id="Rectangle-path" x="1.87444922" y="19.6584414" width="1.04935156" height="1.04935156"></rect>
                <rect id="Rectangle-path" x="3.97321875" y="19.6584414" width="1.04935156" height="1.04935156"></rect>
                <rect id="Rectangle-path" x="6.14171484" y="19.6584414" width="1.04935156" height="1.04935156"></rect>
                <rect id="Rectangle-path" x="8.24048438" y="19.6584414" width="1.04935156" height="1.04935156"></rect>
                <rect id="Rectangle-path" x="1.87444922" y="21.2674648" width="1.04935156" height="1.04935156"></rect>
                <rect id="Rectangle-path" x="3.97321875" y="21.2674648" width="1.04935156" height="1.04935156"></rect>
                <rect id="Rectangle-path" x="6.14171484" y="21.2674648" width="1.04935156" height="1.04935156"></rect>
                <rect id="Rectangle-path" x="8.24048438" y="21.2674648" width="1.04935156" height="1.04935156"></rect>
                <rect id="Rectangle-path" x="1.87444922" y="22.8765547" width="1.04935156" height="1.04935156"></rect>
                <rect id="Rectangle-path" x="3.97321875" y="22.8765547" width="1.04935156" height="1.04935156"></rect>
                <rect id="Rectangle-path" x="6.14171484" y="22.8765547" width="1.04935156" height="1.04935156"></rect>
                <rect id="Rectangle-path" x="8.24048438" y="22.8765547" width="1.04935156" height="1.04935156"></rect>
                <rect id="Rectangle-path" x="10.3391875" y="18.0493516" width="1.04935156" height="2.65844141"></rect>
                <rect id="Rectangle-path" x="10.3391875" y="21.2674648" width="1.04935156" height="2.65844141"></rect>
                <rect id="Rectangle-path" x="6.14171484" y="6.92590625" width="1.04935156" height="1.04935156"></rect>
                <rect id="Rectangle-path" x="7.6808125" y="6.92590625" width="1.11934375" height="1.04935156"></rect>
                <rect id="Rectangle-path" x="9.28983594" y="6.92590625" width="1.04935156" height="1.04935156"></rect>
            </g>
        </g>
    </g>
</svg>