<svg width="640" height="480" xmlns="http://www.w3.org/2000/svg" xmlns:svg="http://www.w3.org/2000/svg" xmlns:xlink="http://www.w3.org/1999/xlink">
 <!-- Created with SVG-edit - http://svg-edit.googlecode.com/ -->
 <defs>
  <symbol id="svg_7" viewBox="0 0 511.999 511.999" xmlns="http://www.w3.org/2000/svg" xmlns:xlink="http://www.w3.org/1999/xlink">
   <g id="svg_1">
    <g id="svg_2">
     <path id="svg_3" d="m496.269,333.383l0,-60.463c0,-19.789 -16.042,-35.831 -35.831,-35.831l-20.163,0l4.133,-11.176l29.391,0c17.233,0 31.194,-14.27 30.692,-31.613c-0.351,-12.078 -10.424,-21.612 -22.508,-21.612l-27.953,0c-12.438,0 -22.521,10.083 -22.521,22.521l0,21.74l-1.775,4.803l-21.44,-64.395c-5.614,-16.862 -21.39,-28.237 -39.161,-28.237l-9.59,0l-14,-71.095c-0.702,-3.565 -3.827,-6.135 -7.461,-6.135l-45.07,0c-4.199,0 -7.604,3.405 -7.604,7.604c0,4.199 3.405,7.604 7.604,7.604l38.818,0l12.214,62.022l-176.094,0l12.213,-62.022l77.36,0c4.199,0 7.604,-3.405 7.604,-7.604s-3.405,-7.604 -7.604,-7.604l-83.612,0c-3.634,0 -6.759,2.57 -7.461,6.135l-14,71.095l-9.59,0c-17.772,0 -33.548,11.376 -39.161,28.237l-21.44,64.395l-1.775,-4.803l0,-21.74c0,-12.438 -10.083,-22.521 -22.521,-22.521l-27.956,0c-12.083,0 -22.157,9.533 -22.507,21.612c-0.504,17.344 13.459,31.613 30.692,31.613l29.391,0l4.133,11.176l-20.164,0c-19.789,0 -35.83,16.041 -35.83,35.83l0,60.466c-8.981,1.994 -15.722,10.008 -15.722,19.58l0,25.252c0,11.083 8.984,20.066 20.066,20.066l8.835,0l0,39.075c0,12.565 10.185,22.75 22.75,22.75l58.414,0c12.565,0 22.75,-10.185 22.75,-22.75l0,-39.075l13.189,0c3.348,12.257 14.573,21.294 27.876,21.294l164.228,0c13.303,0 24.528,-9.039 27.876,-21.294l13.192,0l0,39.075c0,12.565 10.185,22.75 22.75,22.75l58.415,0c12.565,0 22.75,-10.185 22.75,-22.75l0,-39.076l8.841,0c11.083,0 20.066,-8.984 20.066,-20.066l0,-25.251c0.002,-9.575 -6.744,-17.592 -15.729,-19.582zm-49.553,-138.173c0,-4.032 3.281,-7.313 7.313,-7.313l27.953,0c4.032,0 7.313,3.281 7.313,7.313c0,8.545 -6.952,15.497 -15.497,15.497l-27.082,0l0,-15.497zm-381.442,15.497l-27.082,0c-8.545,0 -15.497,-6.952 -15.497,-15.497c0,-4.032 3.28,-7.313 7.312,-7.313l27.954,0c4.032,0 7.313,3.281 7.313,7.313l0,15.497zm52.853,-48.546c3.552,-10.667 13.49,-17.833 24.732,-17.833l15.844,0l194.585,0l15.843,0c11.242,0 21.182,7.166 24.733,17.833l24.947,74.93l-325.631,0l24.947,-74.93zm-0.519,275.197c0,4.159 -3.383,7.542 -7.542,7.542l-58.415,0c-4.159,0 -7.542,-3.383 -7.542,-7.542l0,-39.075l73.499,0l0,39.075zm220.502,-32.988l-164.229,0c-4.738,0 -8.921,-2.419 -11.38,-6.086l186.987,0c-2.457,3.667 -6.641,6.086 -11.378,6.086zm129.775,32.988c0,4.159 -3.383,7.542 -7.542,7.542l-58.415,0c-4.159,0 -7.542,-3.383 -7.542,-7.542l0,-39.075l73.499,0l0,39.075zm28.908,-59.142l0,0c-0.001,2.684 -2.176,4.858 -4.859,4.858l-132.53,0l-206.818,0l-132.52,0c-2.684,0 -4.858,-2.175 -4.858,-4.858l0,-25.251c0,-2.683 2.175,-4.858 4.858,-4.858l82.337,0c4.199,0 7.604,-3.405 7.604,-7.604s-3.405,-7.604 -7.604,-7.604l-71.473,0l0,-59.978c0,-11.39 9.233,-20.623 20.623,-20.623l31.081,0l346.723,0l31.081,0c11.39,0 20.623,9.233 20.623,20.623l0,59.978l-343.172,0c-4.199,0 -7.604,3.405 -7.604,7.604c0,4.199 3.405,7.604 7.604,7.604l354.045,0c2.683,0 4.858,2.175 4.858,4.858l0,25.251l0.001,0z"/>
    </g>
   </g>
   <g id="svg_5">
    <g id="svg_6">
     <path id="svg_10" d="m371.57,263.93l-231.149,0c-4.199,0 -7.604,3.405 -7.604,7.604l0,44.101c0,4.199 3.404,7.604 7.604,7.604l231.149,0c4.199,0 7.604,-3.405 7.604,-7.604l0,-44.101c0,-4.199 -3.405,-7.604 -7.604,-7.604zm-200.228,44.101l-23.317,0l0,-28.893l23.317,0l0,28.893zm38.524,0l-23.317,0l0,-28.893l23.317,0l0,28.893zm38.525,0l-23.317,0l0,-28.893l23.317,0l0,28.893zm38.525,0l-23.317,0l0,-28.893l23.317,0l0,28.893zm38.524,0l-23.317,0l0,-28.893l23.317,0l0,28.893zm38.526,0l-23.318,0l0,-28.893l23.318,0l0,28.893z"/>
    </g>
   </g>
   <g id="svg_11">
    <g id="svg_12">
     <path id="svg_13" d="m462.813,274.603l-63.87,0c-4.199,0 -7.604,3.405 -7.604,7.604l0,33.456c0,4.199 3.405,7.604 7.604,7.604l63.87,0c4.199,0 7.604,-3.405 7.604,-7.604l0,-33.456c0,-4.2 -3.405,-7.604 -7.604,-7.604zm-7.604,33.456l-48.662,0l0,-18.248l48.662,0l0,18.248z"/>
    </g>
   </g>
   <g id="svg_14">
    <g id="svg_15">
     <path id="svg_16" d="m113.048,274.603l-63.87,0c-4.199,0 -7.604,3.405 -7.604,7.604l0,33.456c0,4.199 3.405,7.604 7.604,7.604l63.87,0c4.199,0 7.604,-3.405 7.604,-7.604l0,-33.456c0,-4.2 -3.404,-7.604 -7.604,-7.604zm-7.604,33.456l-48.663,0l0,-18.248l48.662,0l0,18.248l0.001,0z"/>
    </g>
   </g>
   <g id="svg_17">
    <g id="svg_18">
     <path id="svg_19" d="m220.497,75.22l-29.159,0c-2.227,0 -3.172,2.429 -3.172,4.657c0,2.565 1.148,4.793 3.172,4.793l9.314,0l0,36.651c0,2.16 2.633,3.239 5.265,3.239c2.633,0 5.265,-1.08 5.265,-3.239l0,-36.652l9.314,0c2.025,0 3.172,-2.227 3.172,-4.793c0.001,-2.227 -0.944,-4.656 -3.171,-4.656z"/>
    </g>
   </g>
   <g id="svg_20">
    <g id="svg_21">
     <path id="svg_22" d="m262.68,119.497l-12.622,-41.173c-0.743,-2.363 -3.78,-3.51 -6.885,-3.51s-6.143,1.147 -6.885,3.51l-12.555,41.173c-0.067,0.27 -0.135,0.539 -0.135,0.742c0,2.498 3.848,4.32 6.749,4.32c1.687,0 3.038,-0.54 3.442,-1.958l2.295,-8.437l14.242,0l2.295,8.437c0.406,1.417 1.755,1.958 3.443,1.958c2.902,0 6.749,-1.823 6.749,-4.32c0.002,-0.201 -0.065,-0.471 -0.133,-0.742zm-24.434,-13.431l4.927,-18.089l4.927,18.089l-9.854,0z"/>
    </g>
   </g>
   <g id="svg_23">
    <g id="svg_24">
     <path id="svg_25" d="m305.131,117.878l-11.677,-18.021l11.204,-17.953c0.472,-0.742 0.675,-1.417 0.675,-2.093c0,-2.835 -3.848,-4.994 -6.817,-4.994c-1.484,0 -2.497,0.539 -3.172,1.755l-8.977,15.659l-8.977,-15.659c-0.675,-1.216 -1.688,-1.755 -3.172,-1.755c-2.971,0 -6.817,2.16 -6.817,4.994c0,0.675 0.203,1.35 0.675,2.093l11.204,17.953l-11.677,18.021c-0.405,0.674 -0.607,1.282 -0.607,1.89c0,2.902 4.117,5.197 7.019,5.197c1.08,0 2.025,-0.338 2.497,-1.08l9.855,-16.74l9.854,16.74c0.406,0.742 1.417,1.08 2.497,1.08c2.903,0 7.02,-2.295 7.02,-5.197c0,-0.607 -0.203,-1.215 -0.607,-1.89z"/>
    </g>
   </g>
   <g id="svg_26">
    <g id="svg_27">
     <path id="svg_28" d="m318.559,75.22c-2.632,0 -5.264,0.945 -5.264,3.172l0,42.928c0,2.16 2.632,3.239 5.264,3.239c2.633,0 5.265,-1.08 5.265,-3.239l0,-42.928c0,-2.227 -2.632,-3.172 -5.265,-3.172z"/>
    </g>
   </g>
   <g id="svg_29"/>
   <g id="svg_30"/>
   <g id="svg_31"/>
   <g id="svg_32"/>
   <g id="svg_33"/>
   <g id="svg_34"/>
   <g id="svg_35"/>
   <g id="svg_36"/>
   <g id="svg_37"/>
   <g id="svg_38"/>
   <g id="svg_39"/>
   <g id="svg_40"/>
   <g id="svg_41"/>
   <g id="svg_42"/>
   <g id="svg_43"/>
  </symbol>
 </defs>
 <g>
  <title>Layer 1</title>
  <g id="svg_4"/>
  <use id="svg_8" xlink:href="#svg_7" transform="matrix(1.312234270344226,0,0,1.2333439334244445,-99.9143261726736,-55.00198612666363) " y="0" x="0" fill="#00cd69"/>
  <g id="svg_9"/>
 </g>
</svg>