<svg id="SvgjsSvg1199" xmlns="http://www.w3.org/2000/svg" version="1.1" xmlns:xlink="http://www.w3.org/1999/xlink" xmlns:svgjs="http://svgjs.com/svgjs" width="42" height="42" viewBox="0 0 42 42"><title>television (1)</title><desc>Created with Avocode.</desc><defs id="SvgjsDefs1200"></defs><path id="SvgjsPath1201" d="M767.25 457.84C767.15 457.19 766.92 456.58 766.6 456.03L777.62 452.59999999999997C778.05 452.46999999999997 778.3 452.01 778.16 451.58C778.02 451.14 777.56 450.9 777.12 451.03999999999996L765.47 454.65999999999997C764.53 453.84999999999997 763.3000000000001 453.35999999999996 761.97 453.35999999999996C760.63 453.35999999999996 759.4 453.84999999999997 758.46 454.65999999999997L746.8100000000001 451.03999999999996C746.37 450.9 745.9100000000001 451.14 745.7700000000001 451.58C745.6300000000001 452.01 745.8800000000001 452.46999999999997 746.3100000000001 452.59999999999997L757.33 456.03C757.01 456.58 756.7900000000001 457.19 756.6800000000001 457.84H743.49C742.12 457.84 741 458.95 741 460.31V488.08C741 489.44 742.12 490.55 743.49 490.55H743.89V492.13C743.89 492.58 744.26 492.95 744.71 492.95C745.1700000000001 492.95 745.5400000000001 492.58 745.5400000000001 492.13V490.55H778.3900000000001V492.13C778.3900000000001 492.58 778.7600000000001 492.95 779.2200000000001 492.95C779.6700000000002 492.95 780.0400000000002 492.58 780.0400000000002 492.13V490.55H780.4400000000002C781.8100000000002 490.55 782.9300000000002 489.44 782.9300000000002 488.08V460.31C782.9300000000002 458.95 781.8100000000002 457.84 780.4400000000002 457.84ZM765.56 457.84H758.3699999999999C758.7399999999999 456.21999999999997 760.2099999999999 455 761.9699999999999 455C763.7199999999999 455 765.1899999999999 456.22 765.56 457.84ZM780.44 488.91H743.49C743.03 488.91 742.65 488.53000000000003 742.65 488.08000000000004V460.31000000000006C742.65 459.8500000000001 743.03 459.4800000000001 743.49 459.4800000000001H780.44C780.9000000000001 459.4800000000001 781.2800000000001 459.8500000000001 781.2800000000001 460.31000000000006V488.08000000000004C781.2800000000001 488.53000000000003 780.9000000000001 488.91 780.44 488.91Z " fill="#00cd69" fill-opacity="1" transform="matrix(1,0,0,1,-741,-451)"></path><path id="SvgjsPath1202" d="M778.45 461.68C767.6 460.77 756.59 460.77 745.73 461.68C745.36 461.71 745.0500000000001 461.99 744.98 462.36C743.6700000000001 469.97 743.6700000000001 477.69 744.98 485.3C745.0500000000001 485.67 745.36 485.95 745.73 485.98C751.16 486.43 756.63 486.66 762.09 486.66C767.5600000000001 486.66 773.0300000000001 486.43 778.45 485.98C778.83 485.95000000000005 779.1400000000001 485.67 779.2 485.3C780.51 477.69 780.51 469.97 779.2 462.36C779.1400000000001 461.99 778.83 461.71000000000004 778.45 461.68ZM746.51 484.4C745.37 477.38 745.37 470.28 746.51 463.26C756.85 462.43 767.33 462.43 777.68 463.26C778.8199999999999 470.28 778.8199999999999 477.38 777.68 484.4C767.3299999999999 485.22999999999996 756.8499999999999 485.22999999999996 746.51 484.4Z " fill="#00cd69" fill-opacity="1" transform="matrix(1,0,0,1,-741,-451)"></path><path id="SvgjsPath1203" d="M775.9 469C775.4399999999999 469.03 775.09 469.41 775.12 469.87C775.28 472.74 775.24 475.66 775 478.54C774.97 478.99 775.3 479.38 775.76 479.42C775.78 479.42 775.81 479.42 775.83 479.42C776.25 479.42 776.62 479.1 776.6500000000001 478.67C776.8900000000001 475.72 776.9300000000001 472.73 776.7700000000001 469.77000000000004C776.7400000000001 469.32000000000005 776.3600000000001 468.98 775.9000000000001 469.00000000000006Z " fill="#00cd69" fill-opacity="1" transform="matrix(1,0,0,1,-741,-451)"></path><path id="SvgjsPath1204" d="M776.12 468.14C776.15 468.14 776.17 468.14 776.2 468.14C776.6500000000001 468.09999999999997 776.99 467.69 776.94 467.24C776.86 466.40000000000003 776.7600000000001 465.55 776.6500000000001 464.71000000000004C776.58 464.26000000000005 776.1700000000001 463.95000000000005 775.7200000000001 464.01000000000005C775.2600000000001 464.07000000000005 774.9500000000002 464.4800000000001 775.0100000000001 464.93000000000006C775.1200000000001 465.75000000000006 775.2200000000001 466.58000000000004 775.3000000000001 467.4000000000001C775.34 467.8300000000001 775.7 468.1400000000001 776.1200000000001 468.1400000000001Z " fill="#00cd69" fill-opacity="1" transform="matrix(1,0,0,1,-741,-451)"></path><path id="SvgjsPath1205" d="M780.29 487.13C779.65 486.71999999999997 778.81 487.33 779.04 488.05C779.14 488.38 779.4399999999999 488.62 779.79 488.63C780.15 488.65 780.48 488.43 780.61 488.09C780.73 487.73999999999995 780.6 487.34 780.29 487.13Z " fill="#00cd69" fill-opacity="1" transform="matrix(1,0,0,1,-741,-451)"></path></svg>