<svg width="46" height="46" viewBox="0 0 46 46" fill="none" xmlns="http://www.w3.org/2000/svg">
<path d="M23 46C35.7025 46 46 35.7025 46 23C46 10.2975 35.7025 0 23 0C10.2975 0 0 10.2975 0 23C0 35.7025 10.2975 46 23 46Z" fill="#28A8E8"/>
<path fill-rule="evenodd" clip-rule="evenodd" d="M10.005 23.1219L15.6182 24.9508C15.7128 24.9673 15.8099 24.9613 15.9019 24.9335L15.9054 24.9313C17.1999 24.1138 28.7487 16.8208 29.4155 16.5755C29.5205 16.5437 29.5987 16.5796 29.578 16.6522C29.3107 17.5898 19.2623 26.5215 19.2623 26.5215C19.2623 26.5215 19.2218 26.5677 19.1977 26.6246L19.187 26.6183L18.6632 32.1854C18.6632 32.1854 18.4439 33.8913 20.1494 32.1854C21.3506 30.9839 22.5156 29.9761 23.0995 29.4852C25.0292 30.8176 27.1065 32.2917 28.0025 33.0625C28.1526 33.2082 28.3306 33.3222 28.5257 33.3977C28.7208 33.4731 28.9291 33.5086 29.1382 33.5018C29.989 33.4698 30.2264 32.5352 30.2264 32.5352C30.2264 32.5352 34.1955 16.564 34.3281 14.4241C34.3332 14.343 34.339 14.2732 34.3442 14.2099C34.3525 14.1096 34.3594 14.0252 34.3605 13.9369C34.3674 13.7702 34.351 13.6035 34.3118 13.4414C34.2919 13.3496 34.2479 13.2648 34.1844 13.1956C34.121 13.1264 34.0402 13.0753 33.9505 13.0475C33.5879 12.9097 32.973 13.1169 32.973 13.1169C32.973 13.1169 11.1964 20.944 9.95271 21.8109C9.68438 21.997 9.59468 22.1053 9.55021 22.2326C9.3342 22.8497 10.005 23.1219 10.005 23.1219Z" fill="white"/>
</svg>
