<?xml version="1.0" encoding="UTF-8" standalone="no"?>
<svg width="33px" height="33px" viewBox="0 0 33 33" version="1.1" xmlns="http://www.w3.org/2000/svg" xmlns:xlink="http://www.w3.org/1999/xlink">
    <!-- Generator: Sketch 42 (36781) - http://www.bohemiancoding.com/sketch -->
    <title>Combined Shape</title>
    <desc>Created with Sketch.</desc>
    <defs></defs>
    <g id="Page-1" stroke="none" stroke-width="1" fill="none" fill-rule="evenodd">
        <g id="Главное-окно" transform="translate(-746.000000, -703.000000)" fill-rule="nonzero" fill="#00cd69">
            <g id="Group-Copy-2" transform="translate(147.000000, 683.000000)">
                <path d="M628.054113,27.766648 L613.862425,27.766648 C612.934499,27.766648 612.224948,28.4761998 612.224948,29.4041254 L612.224948,32.6791452 C612.224948,33.6070708 612.934499,34.3166227 613.862425,34.3166227 L628.054113,34.3166227 C628.982038,34.3166227 629.69159,33.6070708 629.69159,32.6791452 L629.69159,29.4041254 C629.691655,28.4762649 628.982038,27.766648 628.054113,27.766648 Z M627.617495,25.5833014 C629.964525,25.5833014 631.875002,27.4937134 631.875002,29.8408077 L631.875002,48.671993 C631.875002,50.9645265 629.96459,52.8749384 627.617495,52.8749384 L603.382505,52.8749384 C601.03541,52.8749384 599.124998,50.9645265 599.124998,48.6174321 L599.124998,29.8408077 C599.124998,28.0684563 600.252894,26.4846943 601.854149,25.8726888 L601.854149,22.8541507 C601.854149,21.3258601 603.055009,20.125 604.5833,20.125 L607.85832,20.125 C609.386675,20.125 610.58747,21.3258601 610.58747,22.8541507 L610.58747,25.5833014 L627.617495,25.5833014 Z M602.945822,22.8541507 L602.945822,26.2383574 L602.945822,47.9625062 C602.945822,48.8904317 603.655374,49.5999836 604.5833,49.5999836 L607.85832,49.5999836 C608.786245,49.5999836 609.495797,48.8904317 609.495797,47.9625062 L609.495797,26.1291706 L609.495797,22.8541507 C609.495797,21.9262252 608.786245,21.2166733 607.85832,21.2166733 L604.5833,21.2166733 C603.71,21.2166733 602.945822,21.9262252 602.945822,22.8541507 Z M628.599982,32.6791452 C628.599982,33.0066407 628.381673,33.2249494 628.054178,33.2249494 L613.86249,33.2249494 C613.534995,33.2249494 613.316686,33.0066407 613.316686,32.6791452 L613.316686,29.4041254 C613.316686,29.0766299 613.534995,28.8583213 613.86249,28.8583213 L628.054178,28.8583213 C628.381673,28.8583213 628.599982,29.0766299 628.599982,29.4041254 L628.599982,32.6791452 Z M615.882089,29.5679382 C615.66378,29.3496295 615.336285,29.3496295 615.117911,29.5679382 L614.026238,30.6596114 C613.807929,30.8779201 613.807929,31.2054156 614.026238,31.4237892 C614.135425,31.5329761 614.244546,31.587537 614.408294,31.587537 C614.572042,31.587537 614.681229,31.5329761 614.790351,31.4237892 L615.882024,30.332116 C616.100398,30.1137423 616.100398,29.7862468 615.882089,29.5679382 Z M627.126252,30.6595464 L626.034579,31.7512197 C625.81627,31.9695283 625.81627,32.2970238 626.034579,32.5153975 C626.143766,32.6245843 626.252888,32.6791452 626.416635,32.6791452 C626.580383,32.6791452 626.68957,32.6245843 626.798692,32.5153975 L627.890365,31.4237242 C628.108674,31.2054156 628.108674,30.8779201 627.890365,30.6595464 C627.672056,30.4412378 627.344561,30.4412378 627.126252,30.6595464 Z M619.157044,29.5679382 C618.938735,29.3496295 618.61124,29.3496295 618.392866,29.5679382 L616.209519,31.7512847 C615.991211,31.9695934 615.991211,32.2970889 616.209519,32.5154625 C616.318706,32.6246494 616.427828,32.6792103 616.591576,32.6792103 C616.755323,32.6792103 616.86451,32.6246494 616.973632,32.5154625 L619.156979,30.332116 C619.375417,30.1137423 619.375417,29.7862468 619.157044,29.5679382 Z M622.432064,29.5679382 C622.213755,29.3496295 621.886259,29.3496295 621.667886,29.5679382 L619.484539,31.7512847 C619.266231,31.9695934 619.266231,32.2970889 619.484539,32.5154625 C619.593726,32.6246494 619.702848,32.6792103 619.866596,32.6792103 C620.030343,32.6792103 620.13953,32.6246494 620.248652,32.5154625 L622.431999,30.332116 C622.650372,30.1137423 622.650372,29.7862468 622.432064,29.5679382 Z M625.707083,29.5679382 C625.488775,29.3496295 625.161279,29.3496295 624.942906,29.5679382 L622.759559,31.7512847 C622.54125,31.9695934 622.54125,32.2970889 622.759559,32.5154625 C622.868746,32.6246494 622.977868,32.6792103 623.141615,32.6792103 C623.305363,32.6792103 623.41455,32.6246494 623.523672,32.5154625 L625.707018,30.332116 C625.925392,30.1137423 625.925392,29.7862468 625.707083,29.5679382 Z M616.045837,35.4082959 C616.646267,35.4082959 617.13751,35.8995392 617.13751,36.4999692 L617.13751,38.6833158 C617.13751,39.2837459 616.646267,39.7749891 616.045837,39.7749891 L613.86249,39.7749891 C613.26206,39.7749891 612.770817,39.2837459 612.770817,38.6833158 L612.770817,36.4999692 C612.770817,35.8995392 613.26206,35.4082959 613.86249,35.4082959 L616.045837,35.4082959 Z M616.045837,38.6833158 L616.045837,36.4999692 L613.86249,36.4999692 L613.86249,38.6833158 L616.045837,38.6833158 Z M616.045837,40.8666624 C616.646267,40.8666624 617.13751,41.3579056 617.13751,41.9583356 L617.13751,44.1416822 C617.13751,44.7421123 616.646267,45.2333555 616.045837,45.2333555 L613.86249,45.2333555 C613.26206,45.2333555 612.770817,44.7421123 612.770817,44.1416822 L612.770817,41.9583356 C612.770817,41.3579056 613.26206,40.8666624 613.86249,40.8666624 L616.045837,40.8666624 Z M616.045837,44.1416172 L616.045837,41.9582706 L613.86249,41.9582706 L613.86249,44.1416172 L616.045837,44.1416172 Z M616.045837,46.3249638 C616.646267,46.3249638 617.13751,46.816207 617.13751,47.416637 L617.13751,49.5999836 C617.13751,50.2004137 616.646267,50.6916569 616.045837,50.6916569 L613.86249,50.6916569 C613.26206,50.6916569 612.770817,50.2004137 612.770817,49.5999836 L612.770817,47.416637 C612.770817,46.816207 613.26206,46.3249638 613.86249,46.3249638 L616.045837,46.3249638 Z M616.045837,49.5999836 L616.045837,47.416637 L613.86249,47.416637 L613.86249,49.5999836 L616.045837,49.5999836 Z M622.050007,35.4082959 C622.650372,35.4082959 623.141615,35.8995392 623.14168,36.4999692 L623.14168,38.6833158 C623.14168,39.2837459 622.650437,39.7749891 622.050007,39.7749891 L619.866661,39.7749891 C619.266231,39.7749891 618.774987,39.2837459 618.774987,38.6833158 L618.774987,36.4999692 C618.774987,35.8995392 619.266231,35.4082959 619.866661,35.4082959 L622.050007,35.4082959 Z M622.050007,38.6833158 L622.050007,36.4999692 L619.866661,36.4999692 L619.866661,38.6833158 L622.050007,38.6833158 Z M622.050007,40.8666624 C622.650372,40.8666624 623.141615,41.3579056 623.14168,41.9583356 L623.14168,44.1416822 C623.14168,44.7421123 622.650437,45.2333555 622.050007,45.2333555 L619.866661,45.2333555 C619.266231,45.2333555 618.774987,44.7421123 618.774987,44.1416822 L618.774987,41.9583356 C618.774987,41.3579056 619.266231,40.8666624 619.866661,40.8666624 L622.050007,40.8666624 Z M622.050007,44.1416172 L622.050007,41.9582706 L619.866661,41.9582706 L619.866661,44.1416172 L622.050007,44.1416172 Z M622.050007,46.3249638 C622.650372,46.3249638 623.141615,46.816207 623.14168,47.416637 L623.14168,49.5999836 C623.14168,50.2004137 622.650437,50.6916569 622.050007,50.6916569 L619.866661,50.6916569 C619.266231,50.6916569 618.774987,50.2004137 618.774987,49.5999836 L618.774987,47.416637 C618.774987,46.816207 619.266231,46.3249638 619.866661,46.3249638 L622.050007,46.3249638 Z M622.050007,49.5999836 L622.050007,47.416637 L619.866661,47.416637 L619.866661,49.5999836 L622.050007,49.5999836 Z M628.054113,35.4082959 C628.654543,35.4082959 629.145786,35.8995392 629.145786,36.4999692 L629.145786,38.6833158 C629.145786,39.2837459 628.654543,39.7749891 628.054113,39.7749891 L625.870766,39.7749891 C625.270336,39.7749891 624.779093,39.2837459 624.779093,38.6833158 L624.779093,36.4999692 C624.779093,35.8995392 625.270336,35.4082959 625.870766,35.4082959 L628.054113,35.4082959 Z M628.054113,38.6833158 L628.054113,36.4999692 L625.870766,36.4999692 L625.870766,38.6833158 L628.054113,38.6833158 Z M628.054113,40.8666624 C628.654543,40.8666624 629.145786,41.3579056 629.145786,41.9583356 L629.145786,44.1416822 C629.145786,44.7421123 628.654543,45.2333555 628.054113,45.2333555 L625.870766,45.2333555 C625.270336,45.2333555 624.779093,44.7421123 624.779093,44.1416822 L624.779093,41.9583356 C624.779093,41.3579056 625.270336,40.8666624 625.870766,40.8666624 L628.054113,40.8666624 Z M628.054113,44.1416172 L628.054113,41.9582706 L625.870766,41.9582706 L625.870766,44.1416172 L628.054113,44.1416172 Z M628.054113,46.3249638 C628.654543,46.3249638 629.145786,46.816207 629.145786,47.416637 L629.145786,49.5999836 C629.145786,50.2004137 628.654543,50.6916569 628.054113,50.6916569 L625.870766,50.6916569 C625.270336,50.6916569 624.779093,50.2004137 624.779093,49.5999836 L624.779093,47.416637 C624.779093,46.816207 625.270336,46.3249638 625.870766,46.3249638 L628.054113,46.3249638 Z M628.054113,49.5999836 L628.054113,47.416637 L625.870766,47.416637 L625.870766,49.5999836 L628.054113,49.5999836 Z M630.837889,48.6174972 L630.837889,29.8408077 C630.837889,28.0941435 629.418721,26.6749747 627.672056,26.6749747 L610.58747,26.6749747 L610.58747,47.9624412 C610.58747,49.4907317 609.386675,50.6915919 607.85832,50.6915919 L604.5833,50.6915919 C603.055009,50.6915919 601.854149,49.4907968 601.854149,47.9624412 L601.854149,27.0570311 C600.871663,27.6029002 600.216672,28.6399476 600.216672,29.8408077 L600.216672,48.6720581 C600.216672,50.3641614 601.63584,51.7833302 603.382505,51.7833302 L627.672056,51.7833302 C629.418721,51.7833302 630.837889,50.3641614 630.837889,48.6174972 Z" id="Combined-Shape"></path>
            </g>
        </g>
    </g>
</svg>