<svg width="35" height="35" viewBox="0 0 35 35" fill="none" xmlns="http://www.w3.org/2000/svg">
<path d="M5 7.3871V5C5 2.79086 6.79086 1 9 1H26C28.2091 1 30 2.79086 30 5V7.3871M5 7.3871H17.5M5 7.3871V9.51613M5 7.3871H30M30 7.3871H17.5M30 7.3871V9.51613M30 20.1613V28.4194C30 29.5417 29.0901 30.4516 27.9677 30.4516V30.4516M30 20.1613H17.5M30 20.1613V9.51613M5 20.1613V28.4516C5 29.5562 5.89543 30.4516 7 30.4516V30.4516M5 20.1613H17.5M5 20.1613V9.51613M17.5 20.1613V7.3871M5 9.51613L1 11.6452V15.9032M30 9.51613L34 11.6452V15.9032M27.9677 30.4516V33C27.9677 33.5523 27.52 34 26.9677 34H23C22.4477 34 22 33.5523 22 33V30.4516M27.9677 30.4516H22M22 30.4516L13 30.5M13 30.5V33C13 33.5523 12.5523 34 12 34H8C7.44772 34 7 33.5523 7 33V30.4516M13 30.5L7 30.4516M9 25H14M21 25H26" stroke="#00CD69" stroke-width="1.5" stroke-linecap="round"/>
</svg>
