<svg width="36" height="38" viewBox="0 0 36 38" fill="none" xmlns="http://www.w3.org/2000/svg">
<path d="M4.17391 25H2.04348C1.49119 25 1.04348 25.4477 1.04348 26V35.4783C1.04348 36.0305 1.49119 36.4783 2.04348 36.4783H6.30435C6.85663 36.4783 7.30435 36.0305 7.30435 35.4783V34.913M4.17391 25V31.2609M4.17391 25H6.26087M7.30435 26.0435V26C7.30435 25.4477 6.85663 25 6.30435 25H6.26087M7.30435 26.0435H12.9778C13.3613 26.0435 13.7367 26.1537 14.0593 26.3611L19.6098 29.9293C20.3118 30.3805 20.5284 31.3077 20.0991 32.0233V32.0233C19.6602 32.7548 18.7113 32.992 17.9798 32.5531L14.087 30.2174M7.30435 26.0435V34.913M7.30435 34.913L10.4954 36.7365C10.7976 36.9092 11.1396 37 11.4877 37H21.7209C22.1825 37 22.63 36.8403 22.9873 36.5479L32.2026 29.0081C33.1184 28.2589 33.187 26.8827 32.3504 26.046L32.0373 25.7329C31.3214 25.017 30.1835 24.949 29.3874 25.5745L23.4783 30.2174M30.3354 17.1739L30.8578 17.5802C31.6943 18.2308 32.893 18.116 33.5908 17.3185L34.5931 16.1731C35.3546 15.3028 35.2215 13.9699 34.3028 13.2674L31.8261 11.3734M30.3354 17.1739L19.4888 8.73763C18.7665 8.1759 17.7552 8.1759 17.033 8.73763L6.26087 17.1159M30.3354 17.1739V25M27.1304 7.78261L19.4583 1.9157C18.7494 1.3736 17.7672 1.36676 17.0508 1.89893L1.85974 13.1837C0.879757 13.9117 0.774945 15.3402 1.63818 16.2034L2.92547 17.4907C3.63869 18.2039 4.77139 18.2744 5.56757 17.6552L6.26087 17.1159M27.1304 7.78261V5.13043C27.1304 4.57815 27.5781 4.13043 28.1304 4.13043H30.8261C31.3784 4.13043 31.8261 4.57815 31.8261 5.13043V11.3734M27.1304 7.78261L31.8261 11.3734M6.26087 25V17.1159M14.6087 20.8696V17.6522C14.6087 17.0999 15.0564 16.6522 15.6087 16.6522H20.913C21.4653 16.6522 21.913 17.0999 21.913 17.6522V20.8696C21.913 21.4218 21.4653 21.8696 20.913 21.8696H15.6087C15.0564 21.8696 14.6087 21.4218 14.6087 20.8696Z" stroke="#00CD69" stroke-width="1.5" stroke-linecap="round"/>
</svg>
