<svg width="640" height="480" xmlns="http://www.w3.org/2000/svg" xmlns:svg="http://www.w3.org/2000/svg" xmlns:xlink="http://www.w3.org/1999/xlink">
 <!-- Created with SVG-edit - http://svg-edit.googlecode.com/ -->
 <defs>
  <symbol viewBox="0 0 496 496" id="svg_8" xmlns="http://www.w3.org/2000/svg">
   <path id="svg_1" d="m439.02344,203.43359c15.53515,-18.17578 24.97656,-41.70703 24.97656,-67.43359c0,-57.34375 -46.65625,-104 -104,-104c-25.72656,0 -49.25781,9.44141 -67.43359,24.97656c-17.56641,-34.48047 -53.375,-56.97656 -92.56641,-56.97656c-57.34375,0 -104,46.65625 -104,104c0,2.88672 0.19922,5.72656 0.43359,8.55859c-60.4414,38.44141 -96.43359,103.59375 -96.43359,175.44141c0,114.69531 93.30469,208 208,208c71.84766,0 137,-35.99219 175.44141,-96.43359c2.83203,0.23437 5.67187,0.43359 8.55859,0.43359c57.34375,0 104,-46.65625 104,-104c0,-39.19141 -22.49609,-75 -56.97656,-92.56641zm-79.02344,-155.43359c48.51953,0 88,39.48047 88,88s-39.48047,88 -88,88s-88,-39.48047 -88,-88s39.48047,-88 88,-88zm-104,272l-48,0c-4.41406,0 -8,-3.58594 -8,-8s3.58594,-8 8,-8l40,0c13.23047,0 24,-10.76953 24,-24s-10.76953,-24 -24,-24l-72,0c-4.41406,0 -8,-3.58594 -8,-8s3.58594,-8 8,-8l128.53516,0c-10.70313,16.55078 -16.53516,35.74219 -16.53516,56c0,37.0625 19.55859,69.57422 48.83203,88l-88.83203,0c-4.41406,0 -8,-3.58594 -8,-8s3.58594,-8 8,-8l8,0c13.23047,0 24,-10.76953 24,-24s-10.76953,-24 -24,-24zm-56,-304c34.9375,0 66.71094,21.12891 80.58594,53c-15.3125,18.12109 -24.58594,41.48047 -24.58594,67c0,10.90234 1.70313,21.41406 4.83203,31.30469c-16.48047,15.89453 -37.86328,24.69531 -60.83203,24.69531c-48.51953,0 -88,-39.48047 -88,-88s39.48047,-88 88,-88zm-177.98437,224l89.98437,0c4.41406,0 8,3.58594 8,8s-3.58594,8 -8,8l-40,0c-13.23047,0 -24,10.76953 -24,24s10.76953,24 24,24l72,0c4.41406,0 8,3.58594 8,8s-3.58594,8 -8,8l-125.28125,0c-1.75781,-10.41406 -2.71875,-21.09766 -2.71875,-32c0,-16.48047 2.08984,-32.55859 6.01563,-48zm19.8164,144l142.16797,0c4.41406,0 8,3.58594 8,8s-3.58594,8 -8,8l-32,0c-13.23047,0 -24,10.76953 -24,24s10.76953,24 24,24l96,0c4.41406,0 8,3.58594 8,8l0,17.98438c-15.44141,3.92578 -31.51953,6.01562 -48,6.01562c-70.91016,0 -132.92187,-38.67187 -166.16797,-96zm230.16797,85.11328l0,-13.11328c0,-13.23047 -10.76953,-24 -24,-24l-96,0c-4.41406,0 -8,-3.58594 -8,-8s3.58594,-8 8,-8l32,0c13.23047,0 24,-10.76953 24,-24s-10.76953,-24 -24,-24l-150.47266,0c-4.71093,-10.22266 -8.58203,-20.90234 -11.45703,-32l121.92969,0c13.23047,0 24,-10.76953 24,-24s-10.76953,-24 -24,-24l-72,0c-4.41406,0 -8,-3.58594 -8,-8s3.58594,-8 8,-8l40,0c13.23047,0 24,-10.76953 24,-24s-10.76953,-24 -24,-24l-85.11328,0c13.28906,-37.87891 38.28906,-70.86328 72.46484,-94.28125c11.4961,44.92188 52.19922,78.28125 100.64844,78.28125c25.07813,0 48.59375,-8.80859 67.38281,-24.9375c8.57813,16.80078 21.5625,30.9375 37.44922,40.9375l-128.83203,0c-13.23047,0 -24,10.76953 -24,24s10.76953,24 24,24l72,0c4.41406,0 8,3.58594 8,8s-3.58594,8 -8,8l-40,0c-13.23047,0 -24,10.76953 -24,24s10.76953,24 24,24l48,0c4.41406,0 8,3.58594 8,8s-3.58594,8 -8,8l-8,0c-13.23047,0 -24,10.76953 -24,24s10.76953,24 24,24l115.87891,0c-23.2461,32.44922 -55.25391,56.27344 -91.87891,69.11328zm120,-85.11328c-48.51953,0 -88,-39.48047 -88,-88c0,-22.96875 8.80078,-44.35156 24.69531,-60.83203c9.89063,3.12891 20.40235,4.83203 31.30469,4.83203c25.51953,0 48.87891,-9.27344 67,-24.58594c31.87109,13.875 53,45.64844 53,80.58594c0,48.51953 -39.48047,88 -88,88zm0,0"/>
   <path id="svg_2" d="m360,176c-8.82422,0 -16,-7.17578 -16,-16l-16,0c0,14.87109 10.23047,27.28906 24,30.86328l0,17.13672l16,0l0,-16l24,0l0,-32c0,-17.64844 -14.35156,-32 -32,-32c-8.82422,0 -16,-7.17578 -16,-16l0,-16l16,0c8.82422,0 16,7.17578 16,16l16,0c0,-14.87109 -10.23047,-27.28906 -24,-30.86328l0,-17.13672l-16,0l0,16l-24,0l0,32c0,17.64844 14.35156,32 32,32c8.82422,0 16,7.17578 16,16l0,16l-16,0zm0,0"/>
   <path id="svg_3" d="m400,128l16,0l0,16l-16,0l0,-16zm0,0"/>
   <path id="svg_5" d="m304,128l16,0l0,16l-16,0l0,-16zm0,0"/>
   <path id="svg_6" d="m160,136c0,22.05469 17.94531,40 40,40s40,-17.94531 40,-40l-16,0c0,13.23047 -10.76953,24 -24,24s-24,-10.76953 -24,-24l0,-8l32,0l0,-16l-32,0l0,-16l32,0l0,-16l-32,0l0,-8c0,-13.23047 10.76953,-24 24,-24s24,10.76953 24,24l16,0c0,-22.05469 -17.94531,-40 -40,-40s-40,17.94531 -40,40l0,8l-32,0l0,16l32,0l0,16l-32,0l0,16l32,0l0,8zm0,0"/>
   <path id="svg_7" d="m438.15234,253.12891l-12.30468,-10.25782l-33.84766,40.63282l-33.84766,-40.63282l-12.30468,10.25782l38.15234,45.77343l0,5.09766l-32,0l0,16l32,0l0,16l-32,0l0,16l32,0l0,16l16,0l0,-16l32,0l0,-16l-32,0l0,-16l32,0l0,-16l-32,0l0,-5.09766l38.15234,-45.77343zm0,0"/>
  </symbol>
 </defs>
 <g>
  <title>Layer 1</title>
  <g id="svg_4"/>
  <g id="svg_9"/>
  <use style="--darkreader-inline-fill:#067217;" id="svg_44" xlink:href="#svg_8" transform="matrix(1.0854840940373889,0,0,0.9831947306014974,13.593091204199263,3.5952314138412484) " y="0" x="0" fill="#00cd69"/>
  <g id="svg_45"/>
 </g>
</svg>